<?xml version="1.0" encoding="utf-8"?>
<!-- Generator: Adobe Illustrator 22.0.1, SVG Export Plug-In . SVG Version: 6.00 Build 0)  -->
<svg version="1.1" id="Layer_1" xmlns="http://www.w3.org/2000/svg" xmlns:xlink="http://www.w3.org/1999/xlink" x="0px" y="0px"
	 viewBox="0 0 512 512" style="enable-background:new 0 0 512 512;" xml:space="preserve">
<style type="text/css">
	.st0{fill:#EE2F2A;}
</style>
<g>
	<g>
		<path class="st0" d="M215.8,28.8L216,28v342.6L108.1,262.9c-5.3-5.3-12.4-8.2-19.9-8.2c-7.5,0-14.6,2.9-19.9,8.2l-16.8,16.8
			c-5.3,5.3-8.2,12.3-8.2,19.8c0,7.5,2.9,14.5,8.2,19.8l184.6,184.6c5.3,5.3,12.3,8.2,19.8,8.2c7.5,0,14.6-2.9,19.9-8.2l184.6-184.6
			c5.3-5.3,8.2-12.3,8.2-19.8c0-7.5-2.9-14.5-8.2-19.8l-16.8-16.8c-5.3-5.3-12.3-8.2-19.8-8.2c-7.5,0-14.1,2.9-19.4,8.2L296,371.8
			V28.4C296,13,282.7,0,267.2,0l-23.7,0C228.1,0,215.8,13.3,215.8,28.8z"/>
	</g>
</g>
</svg>
