<?xml version="1.0" encoding="utf-8"?>
<!-- Generator: Adobe Illustrator 22.0.1, SVG Export Plug-In . SVG Version: 6.00 Build 0)  -->
<svg version="1.1" id="Layer_3_copy_2" xmlns="http://www.w3.org/2000/svg" xmlns:xlink="http://www.w3.org/1999/xlink" x="0px"
	 y="0px" viewBox="0 0 360 443.065" enable-background="new 0 0 360 443.065" xml:space="preserve">
<path fill="#FFFFFF" d="M107.917,274.186c0.184,7.783,4.696,28.332,30.801,47.834c10.885,8.13,15.877,11.799,17.312,12.793
	l-0.007,0.06c0.719,0.501-3.86,0.383-5.118,0.505c-2.046,0.195-9.005-0.436-14.577,0.595c-5.026,0.928-4.344,2.14-4.842,5.777
	c-0.395,2.881-0.025,7.448-0.17,11.344c-0.149,3.892-0.363,6.661,1.286,8.543c1.626,1.853,2.654,2.149,9.554,1.722
	c6.562-0.402,24.732-0.413,26.923-0.859c2.81-0.576,2.36,0.443,0.742,3.919c-2.776,5.956-11.827,33.266-25.892,59.215
	c-1.972,3.637,3.573,1.917,8.305,4.199c8.555,4.126,8.275,5.274,10.522,0.969c2.436-4.665,14.779-33.714,16.689-42.684
	c0.248-1.171,0.751-2.183,0.944-0.427c0.138,1.267,0.319,37.965-0.704,49.541c-0.054,0.615,0.093,1.252,0.523,1.694
	c0.616,0.634,1.548,0.897,2.338,1.083c0.009,0,0.016-0.001,0.016-0.001c4.254-1.418,9.402-2.461,13.77-1.74
	c0.386-0.046,0.755-0.131,1.111-0.241c0.234-0.195,0.445-0.425,0.595-0.7c0.34-0.615,0.514-1.313,0.668-1.995
	c0.011-0.053,0.023-0.106,0.034-0.161c0.211-0.976,0.386-1.963,0.491-2.957c0.062-0.588,0.103-1.178,0.14-1.768
	c0.048-0.762,0.08-1.529,0.108-2.294c0.032-0.923,0.053-1.846,0.067-2.769c0.016-1.068,0.023-2.133,0.023-3.198
	c0-1.189-0.011-2.381-0.03-3.573c-0.018-1.3-0.048-0.866-0.087-2.163c-0.039-1.391-0.09-2.783-0.149-4.172
	c-0.062-1.467-0.135-2.932-0.218-4.399c-0.085-1.522-0.184-3.047-0.292-4.569c-0.113-1.566-0.236-3.132-0.374-4.695
	c-0.14-1.591-0.292-3.18-0.459-4.769c-0.168-1.598-0.351-3.196-0.551-4.789c-0.2-1.591-0.416-3.178-0.65-4.762
	c-0.23-1.566-0.48-3.127-0.751-4.686c-0.266-1.522-0.551-2.177-0.861-3.69c-0.301-1.465-0.625-2.925-0.976-4.378
	c-0.338-1.389-0.7-2.774-1.097-4.147c-0.317-1.091-0.652-2.177-1.013-3.265c-0.064-0.172-0.356-1.66-0.317-1.853
	c0.11-0.537,0.785-0.149,1.522-0.292c0,0,0.347-0.067,0.542-0.099c4.67-0.627,12.802-0.209,14.637-0.131
	c1.809,0.053,11.051,0.934,13.656,1.173c2.583,0.248,5.726,0.85,5.586-6.998c-0.037-2.094-0.044-3.338-0.037-5.292
	c0.002-0.264,0.002-0.535,0.002-0.794c0.007-0.496,0.011-0.983,0.016-1.451c0.007-0.289,0.007-0.551,0.014-0.824
	c0.002-0.269,0.005-0.535,0.009-0.792c0.002-0.239,0.009-0.484,0.011-0.707c0.014-0.425,0.023-0.833,0.041-1.205
	c0.002-0.119,0.002-0.225,0.009-0.34c0.005-0.282,0.014-0.542,0.028-0.783c0.005-0.124,0.009-0.241,0.016-0.356
	c0.009-0.223,0.023-0.402,0.032-0.565c0.005-0.053,0.005-0.129,0.012-0.174c0.021-0.236,0.034-0.491,0.044-0.769
	c0.06-1.915-0.188-5.423-3.816-6.358c-4.176-1.042-11.521-1.293-18.124-0.719c-0.923,0.083-1.125,0-0.843-0.257l0.007-0.06
	c1.424-1.015,10.959-6.284,21.867-16.047c11.999-10.764,17.725-16.487,21.394-24.275c0,0,13.133-25.478,12.474-47.056
	c-0.133-4.355,0.568-3.992,3.278-3.911c0.815,0.023,3.918-0.195,5.587-1.3c5.572-1.27,10.494-20.29,10.494-20.29
	s8.366-28.883,10.395-40.694c1.805-10.507,1.377-16.645-5.031-19.766l-1.074-0.607c-0.483-0.273-0.721-0.838-0.575-1.373
	c0.122-0.446,0.255-0.973,0.32-1.366c3.135-10.884,8.736-24.66,7.464-30.244c-0.221-1.603-1.58-2.125-2.052-2.444
	c-0.653-0.442-3.137-3.213-3.828-5.161c-0.1-0.283-0.138-0.58-0.164-0.879c-1.769-20.552-9.071-46.334-30.826-68.787
	c-0.032-0.021-1.495-1.364-2.388-2.177c-1.862-1.678-4.245-3.765-6.987-5.82c-5.793-4.33-10.415-7.655-19.943-12.41
	c-0.732-0.363-7.887-3.618-18.46-6.204c-0.99-0.266-1.988-0.523-2.994-0.76c-1.552-0.365-3.979-0.813-6.743-1.192
	c-6.514-1.019-13.746-1.566-21.268-1.104v0.005c-0.895,0.044-1.942,0.096-2.22,0.101c-0.45,0.007-0.921,0.03-1.38,0.048
	c-0.512,0.018-1.01,0.03-1.543,0.051c-1.591,0.076-3.69,0.317-5.894,0.631c-3.556,0.514-7.372,1.226-9.723,1.777
	c-2.631,0.641-6.178,1.38-10.612,2.65c-1.821,0.533-3.653,1.1-5.476,1.69c-0.512,0.163-1.026,0.321-1.534,0.487
	c-1.968,0.647-3.947,1.32-5.947,2.039c-1.451,0.51-7.616,3.18-8.957,3.798c-0.643,0.298-1.529,0.677-2.484,1.065
	c-4.346,1.378-5.26,3.889-5.416,5.272c-0.101,0.889-0.303,1.768-0.682,2.576c-6.261,13.307-20.988,14.596-26.835,14.887
	c-1.529,0.073-2.881,0.298-2.397,1.784c1.247,3.821,8.135,10.945,12.35,12.238c-0.06,0.608-3.612,1.38-4.355,1.577
	c-1.697,0.443-8.676-0.17-9.021-0.101c-0.03,0.002-0.055,0.007-0.085,0.009c-7.913,0.666-10.344,6.057-11.055,8.612
	c-0.22,0.793-0.093,1.647,0.358,2.335c1.747,2.663,3.585,4.832,4.97,8.346c0.016,0.037,0.03,0.076,0.046,0.115
	c0.358,0.925,0.686,1.945,0.973,3.088c0.168,1.506,1.373,3.074-0.149,6.027c-2.7,5.233-9.446,6.868-10.457,12.066
	c-1.437,7.389,1.112,12.224,3.909,24.438c1.917,8.372,3.988,17.027,5.472,20.952c0.078,0.206-0.044,0.421-0.261,0.463
	c-0.592,0.113-1.619,0.328-1.966,0.446c-3.908,1.555-5.137,4.632-5.582,10.65c-0.98,13.307,8.846,33.838,11.89,51.426
	c1.027,5.935,3.76,15.445,8.31,19.339c1.05,0.899,3.248,1.475,4.61,1.711c3.555,0.617,5.1-1.632,5.304,1.939
	c0.042,0.743,0.296,2.747,0.328,3.879C101.153,261.657,107.917,274.186,107.917,274.186"/>
<path d="M281.088,179.807c-2.555,13.574-5.406,20.387-7.241,28.763c-1.903,8.709-5.643,21.441-9.273,21.769
	c-3.669,1.102-5.144-3.139-7.498,0.002c-1.403,1.869-2.489,4.337-3.74,5.93c-0.797,1.042-1.584,3.368-1.598,4.636
	c0,2.45-0.135,10.363-2.328,20.741c-3.304,15.659-9.312,27.07-15.553,34.27c-11.955,13.79-23.155,16.01-24.487,16.712
	c-1.713,0.907-4.307,0.372-5.154-0.034c-0.861-0.393-1.52-1.426-3.001-2.872c-1.522-1.424-2.053,0.744-2.11,1.297
	c-0.06,0.517,0.774,7.044-0.889,9.992c-3.584,6.351-7.033,6.904-8.952,14.811c-0.647,2.67-0.197,6.704-3.387,4.879
	c-7.797-4.456-18.969-16.515-21.281-28.206c-0.703-3.561-0.044-7.531,2.126-14.302c1.254-3.972,2.147-8.396,2.147-10.945
	c0-4.518-1.768-8.35,0-8.743c3.274-0.728,4.764,7.747,6.286,6.87c2.643-1.522,0.68-10.472,0.68-10.472s-1.086-2.544-5.724-3.632
	c-2.668-0.625-3.506-2.622-0.661-4.018c2.124-1.042,4.592-2.413,7.469-1.984c19.224,2.725,24.755-1.139,32.529-3.235
	c1.527-0.404,2.427-0.583,3.623-0.018c1.187,0.551,4.378,2.298,5.028,3.938c0.659,1.623-0.025,8.004,0.996,12.805
	c1.038,4.822,4.427,0.441,5.267-1.465c0.852-1.892,1.724-6.555,1.901-7.74c0.186-1.18,1.173-6.139,2.955-7.618
	c3.522-2.923,4.762-6.766,5.329-8.268c0.583-1.506,1.504-6.144,1.339-12.922c-0.17-6.762-1.391-7.496-3.024-8.95
	c-1.614-1.449-3.554-1.169-7.673-4.941c-3.674-3.37-6.697-8.814-9.354-12.242c-2.666-3.416-7.083-7.092-12.125-8.325
	c-5.024-1.212-2.937,3.421-2.668,4.723c0.211,0.918,1.394,5.03-0.282,6.385c-1.642,1.35-11.801,8.181-20.864,5.813
	c-10.801-2.821-14.531-8.833-14.754-14.641c-0.154-4.117,1.818-8.084,4.277-12.802c1.44-2.757,2.02-7.363,2.599-11.778
	c0.459-3.534,1.407-8.642,2.177-10.46c0.553-1.311,1.855-2.734,4.785-2.567c2.898,0.163,4.799,1.605,5.329,4.105
	c1.876,8.688,4.939,10.881,5.976,11.585c1.049,0.7,3.01-0.705,3.772-1.212c0.774-0.501,2.739-2.489,2.121-3.554
	c-0.939-1.653-1.456-2.643-1.662-3.612c-0.358-1.653,1.708-1.451,2.128-1.12c3.384,2.666,6.576,2.9,12.426,3.876
	c10.235,1.706,11.703-2.066,18.733-0.847c0.912,0.158,2.645,0.921,3.212,1.977c0.466,0.902,1.32,2.978,2.179,3.343
	c0.852,0.331,2.939,0.459,4.016,0.652c1.488,0.25,4.153,0.085,3.703,2.836c-1.143,7.368-9.648,9.4-13.622,10.084
	c-1.642,0.282-2.395,0.416-2.661,0.65c-0.861,0.758-0.893,3.065,0.099,4.555c0.7,1.049,3.915,1.116,8.316,0.271
	c4.59-0.882,8.998-3.095,12.479-8.52c3.687-5.747,5.715-18.398,6.142-20.76c0.418-2.36,1.364-6.314,2.666-7.122
	c1.283-0.808,7.274-2.627,8.116-2.48c1.006,0.174,1.736,0.659,2.211,2.976c0.471,2.34-0.409,16.278-0.425,18.382
	c-0.025,2.243,1.125,2.223,1.766,1.926c1.396-0.643,5.125-3.127,5.967-5.997c0.625-2.133-1.171-5.235-0.269-8.183
	c1.405-4.594,2.79-5.818,3.745-5.726c5.843,0.558,7.04,3.119,5.644,10.541 M198.269,254.748c-2.172,0.794-8.445,2.255-11.482,2.438
	c-3.065,0.172-12.784,0.831-14.412,0.753c-2.004-0.117-4.709-1.093-6.906-3.102c-0.443-0.409-0.923-1.809,0.87-1.841
	c3.331-0.06,8.959-1.839,28.335-0.197c2.071,0.17,3.051,0.262,3.543,0.308C198.724,253.16,200.439,253.982,198.269,254.748
	 M150.614,246.878c-9.43-0.117-13.794-3.632-14.467-4.681c-0.65-1.017,0.439-1.807,1.424-2.124c2.227-0.705,6.185-2.705,7.79-3.924
	c1.614-1.203,6.059-3.972,8.302-5.416c1.056-0.689,7.12-3.329,10.665-0.859c5.322,3.713,10.293,6.195,19.394,5.639
	c5.857-0.358,5.724-5.083,10.488-6.587c4.305-1.357,5.132-2.413,6.479-3.203c1.738-0.347,3.021-0.785,4.906,0.971
	c2.392,2.225,3.256,3.979,6.022,7.106c3.788,4.275,7.965,6.268,9.26,6.521c1.283,0.264,2.209,1.311,2.225,1.743
	c0.011,0.425-0.519,1.754-4.337,2.845c-12.745,3.653-26.548,1.311-33.654-1.527c-3.605-1.442-7.111-1.834-11.069,0.11
	C170.054,245.445,159.419,246.986,150.614,246.878 M146.084,299.306c-7.225,0.223-26.112-11.175-34.353-43.53
	c-2.135-8.323,3.111-15.074,6.367-16.234c1.924-0.707,2.937-0.93,3.584-1.017c0.668-0.083,3.958-0.062,3.843,3.653
	c-0.112,3.01,2.386,28.1,8.936,37.181c1.626,2.252,3.127,2.335,3.873,0.347c0.684-1.848,1.823-4.231,2.188-5.138
	c0.269-0.652,2.65-4.296,3.359-1.529c1.502,5.878,5.021,17.971,6.502,21.093C152.839,299.311,148.793,299.224,146.084,299.306
	 M108.12,202.758c-0.507-2.179,0.461-5.439,5.593-2.149c0.822,0.526,3.233,1.621,5.912,2.39c1.623,0.468,2.675-0.216,3.132-1.394
	c0.478-1.169,1.807-3.504-0.478-4.622c-2.271-1.134-7.896-2.112-11.108-10.015c-0.574-1.412,0.397-3.035,1.3-3.451
	c0.914-0.409,2.041-0.202,3.093,0.797c1.045,0.978,3.286,3.143,5.295,3.224c1.851,0.087,2.154-0.664,2.528-1.1
	c1.552-1.745,6.009-8.259,15.248-7.129c3.809,0.466,7.324,1.313,8.605,1.41c0.914,0.06,3.451,0.174,5.878-0.282
	c2.767-0.517,6.897-1.375,4.874,0.96c-1.642,1.896-3.015,2.686-1.575,4.743c0.073,0.106,0.147,0.207,0.218,0.305
	c1.297,1.828,1.332,4.259,0.011,6.071l-0.158,0.232c-2.041,2.652-6.263,5.706-14.993,6.259c-3.977,0.253-4.225,0.106-4.31,2.381
	c-0.03,0.877-0.021,1.339,0.108,1.952c0.239,1.143,0.971,1.619,3.733,1.791c2,0.122,5.664-0.271,5.671-0.273
	c0.898-0.269,1.958,0.305,1.38,1.054c-0.09,0.113-0.455,0.661-0.519,0.744c-1.981,2.56-2.599,4.9-2.783,6.298
	c-0.156,1.182-0.84,2.241-1.89,2.785c-0.014,0.007-0.025,0.014-0.039,0.021c-1.274,0.654-6.424,1.766-10.477,5.113
	c-4.034,3.345-12.467,6.105-16.09,1.991C112.65,218.761,109.695,209.587,108.12,202.758 M105.5,162.225
	c-1.137,0.122-2.096-0.569-3.336-0.838c-1.435-0.312-2.314,0.126-2.909-0.666c-0.528-0.813-0.429-1.58,0.39-1.89
	c0.82-0.308,1.417-0.078,2.243-0.236c1.685-0.321,3.74-2.25,5.26-0.11C108.131,159.874,107.289,162.032,105.5,162.225
	 M91.495,213.645c-3.644-2.427-3.447-5.603-4.375-8.73c-1.968-6.631-4.08-14.617-5.908-21.406
	c-1.107-4.105-1.388-13.738,4.184-13.738c2.808,0,4.902,0.879,5.8,3.524c1.997,5.885-1.766,4.861-0.799,11.815
	c0.684,4.918,1.623,9.763,3.175,18.118c0.714,3.85,1.97,13.114-1.414,10.859 M80.763,119.153c2.032-5.497,5.726-10.18,8.247-13.489
	c2.307-3.026,1.217-7.019,0.039-10.598c-0.765-3.295-2.881-6.704-3.205-7.607c-0.234-0.631-0.241-1.141-0.041-1.587
	c0.152-0.101,0.278-0.184,0.432-0.282l4.463-0.383c12.771-1.632,24.031-6.118,27.433-8.026c1.675-0.939,3.453-1.68,5.271-2.295
	c2.134-0.722,4.339-1.45,6.545-1.74c1.671-0.276,3.648-0.533,5.34-0.719c2.528-0.287,6.518,1.481,5.632,2.007
	c-2.138,1.281-12.061,3.577-20.79,13.999c-5.35,6.374-6.592,10.316-8.396,13.252c-1.825,2.946-3.29,3.646-5.857,5.864
	c-1.256,1.07-3.814,3.313-5.067,6.883c-1.267,3.605-6.144,16.175-6.78,36.139c-0.069,2.317-0.471,4.764-2.668,5.604
	c0,0-0.011,0.005-0.018,0.007c-1.802,0.73-3.264,1.923-3.568,0.624c-1.157-4.383-3.842-13.833-4.966-19.818
	c-0.354-1.888-0.775-3.756-1.223-5.625C80.364,126.263,79.809,121.734,80.763,119.153 M119.597,167.699
	c-2.321,1.472-4.597,3.178-6.328,4.298c-2.112,1.394-5.081,0.06-4.213-2.902c0.425-1.44,2.47-5.127,5.905-5.779
	c0.448-0.092,2.151-0.416,3.577-0.588c1.665-0.177,3.435-0.328,4.337-0.367c2.431-0.106,2.698,1.848,1.049,2.854
	C122.83,165.89,121.14,166.723,119.597,167.699 M122.801,172.059c0.62-0.505,0.893-0.507,2.989-1.658
	c1.488-0.827,3.191-1.846,4.907-2.96c3.111-2.023,9-4.114,11.501-4.089c1.807,0.023,4.964,0.801,6.645,2.633
	c1.754,1.913,2.234,4.137-0.055,3.752c-2.268-0.39-4.677-1.003-9.039,0c-4.884,1.116-8.199,2.985-10.552,4.041
	c-2.411,1.114-4.849,1.382-5.655,1.345C122.762,175.071,120.547,173.886,122.801,172.059 M158.854,215.299
	c0.569,1.047,0.753,2.808,0.59,3.534c-0.168,0.891-3.297,2.055-5.898-1.835c-2.597-3.866-1.378-8.621,0.165-10.488
	c2.45-2.999,6.197-0.82,5.655,0.287C157.493,210.64,158.326,214.259,158.854,215.299 M236.915,177.341
	c-0.957,0.484-4.569-0.728-5.568-1.288c-1.997-1.12-3.421-1.913-6.11-4.209c-1.782-1.506-5.03-2.216-8.107-2.069
	c-2.356,0.115-4.7,0.622-6.509,1.042c-1.782,0.432-1.919-1.189-1.389-1.802c0.535-0.608,3.04-2.902,8.502-4.332
	c0.797-0.209,2.335-0.14,3.109-0.055c2.28,0.253,5.008,1.77,6.968,3.676c1.961,1.919,5.928,5.299,8.073,6.606
	C236.903,175.522,239.178,176.184,236.915,177.341 M234.683,168.305c0,0-3.38-2.307-4.459-4.183
	c-0.535-0.93-0.413-1.704,1.017-1.715c5.065-0.053,9.705-0.172,11.964,1.722c1.642,1.382,1.688,4.271,0.882,6.135
	c-0.932,2.128-2.787,1.525-3.848,1.373C239.179,171.478,234.683,168.305,234.683,168.305 M260.077,160.721
	c-0.767,0.829-1.444,0.331-3.026,0.723c-1.233,0.301-2.053,0.996-3.189,0.895c-1.793-0.163-2.675-2.305-1.717-3.71
	c1.483-2.167,3.573-0.28,5.262,0.016c0.827,0.145,1.421-0.099,2.248,0.197C260.478,159.135,260.591,159.899,260.077,160.721
	 M114.041,62.807c0.774-1.199,2.654-2.948,4.53-4.303c1.968-1.407,11.645-8.658,20.634-11.395c1.667-0.498,2.094-0.748,3.157-1.003
	c1.348-0.351,2.491-3.253-0.315-3.676c-2.943-0.427-4.142-0.234-5.712-0.184c-1.568,0.034-2.326-0.806-1.187-2.041
	c1.157-1.242,3.24-2.507,6.906-3.979c8.001-3.187,22.186-4.89,28.801-5.478c8.631-0.744,9.675-0.716,15.289-0.285
	c5.262,0.397,9.386,1.378,11.342,1.722c9.903,1.791,21.314,6.378,31.459,11.946c5.34,3.168,10.486,6.707,15.275,10.44
	c14.536,11.331,31.23,32.885,28.794,78.279c-0.289,5.359-0.925,8.332-1.274,9.625c-0.365,1.316-2.103,3.559-3.024,0.59
	c-3.003-9.712-6.865-26.831-15.654-40.349c-1.224-1.885-3.111-1.711-2.925,0.276c0.069,0.829,0.475,9.487,0.262,11.161
	c-1.423,11.152,1.991,6.808,7.023,18.772c1.559,3.701,3.566,11.018,4.068,15.737c0.131,1.185,0.29,2.56,0.319,3.88
	c0.036,1.667-0.793,1.777-0.793,1.777c-3.442-0.011-9.445-1.646-12.682-1.75c-3.683-0.117-29.244-0.374-38.85,0.381
	c-9.616,0.735-14.853,4.192-20.296,8.649c-0.902,0.741-2.189,1.43-2.913,1.792c-0.364,0.182-0.769,0.237-1.169,0.167
	c-0.439-0.077-1.157-0.213-2.294-0.449c-2.346-0.482-5.185-0.673-7.48,0.03c-2.291,0.684-3.37,1.277-5.846-0.161
	c-3.527-2.059-8.934-10.291-27.807-10.442c-10.695-0.085-24.718-0.23-32.977,0.133c-2.668,0.117-4.061,0.418-4.745,0.4
	c-0.057-0.312-0.072-0.749-0.075-0.834c-0.14-15.071,9.694-11.73,10.821-15.645c2.81-9.76,3.467-33.239,20.512-47.653
	c8.148-6.888,12.387-7.177,19.95-7.177c8.151,0,16.102,2.126,20.156,4.135c3.228,1.596,4.828,2.663,6.096,1.724
	c1.267-0.964,4.659-4.041,6.059-5.095c1.405-1.079,0.875-2.753-0.452-3.848c-1.274-1.033-13.367-16.242-31.907-19.307
	c-4.248-0.707-7.384-1.352-11.239-1.362c-2.087-0.078-3.938-0.087-8.782,0.501c-7.095,0.861-16.37,4.81-22.34,7.177
	C112.434,65.344,113.669,63.342,114.041,62.807 M107.917,274.186c0.184,7.783,4.696,28.332,30.801,47.834
	c10.885,8.13,15.877,11.799,17.312,12.793l-0.007,0.06c0.719,0.501-3.86,0.383-5.118,0.505c-2.046,0.195-9.005-0.436-14.577,0.595
	c-5.026,0.928-4.344,2.14-4.842,5.777c-0.395,2.881-0.025,7.448-0.17,11.344c-0.149,3.892-0.363,6.661,1.286,8.543
	c1.626,1.853,2.654,2.149,9.554,1.722c6.562-0.402,24.732-0.413,26.923-0.859c2.81-0.576,2.36,0.443,0.742,3.919
	c-2.776,5.956-11.827,33.266-25.892,59.215c-1.972,3.637,3.573,1.917,8.305,4.199c8.555,4.126,8.275,5.274,10.522,0.969
	c2.436-4.665,14.779-33.714,16.689-42.684c0.248-1.171,0.751-2.183,0.944-0.427c0.138,1.267,0.319,37.965-0.704,49.541
	c-0.054,0.615,0.093,1.252,0.523,1.694c0.616,0.634,1.548,0.897,2.338,1.083c0.009,0,0.016-0.001,0.016-0.001
	c4.254-1.418,9.402-2.461,13.77-1.74c0.386-0.046,0.755-0.131,1.111-0.241c0.234-0.195,0.445-0.425,0.595-0.7
	c0.34-0.615,0.514-1.313,0.668-1.995c0.011-0.053,0.023-0.106,0.034-0.161c0.211-0.976,0.386-1.963,0.491-2.957
	c0.062-0.588,0.103-1.178,0.14-1.768c0.048-0.762,0.08-1.529,0.108-2.294c0.032-0.923,0.053-1.846,0.067-2.769
	c0.016-1.068,0.023-2.133,0.023-3.198c0-1.189-0.011-2.381-0.03-3.573c-0.018-1.3-0.048-0.866-0.087-2.163
	c-0.039-1.391-0.09-2.783-0.149-4.172c-0.062-1.467-0.135-2.932-0.218-4.399c-0.085-1.522-0.184-3.047-0.292-4.569
	c-0.113-1.566-0.236-3.132-0.374-4.695c-0.14-1.591-0.292-3.18-0.459-4.769c-0.168-1.598-0.351-3.196-0.551-4.789
	c-0.2-1.591-0.416-3.178-0.65-4.762c-0.23-1.566-0.48-3.127-0.751-4.686c-0.266-1.522-0.551-2.177-0.861-3.69
	c-0.301-1.465-0.625-2.925-0.976-4.378c-0.338-1.389-0.7-2.774-1.097-4.147c-0.317-1.091-0.652-2.177-1.013-3.265
	c-0.064-0.172-0.356-1.66-0.317-1.853c0.11-0.537,0.785-0.149,1.522-0.292c0,0,0.347-0.067,0.542-0.099
	c4.67-0.627,12.802-0.209,14.637-0.131c1.809,0.053,11.051,0.934,13.656,1.173c2.583,0.248,5.726,0.85,5.586-6.998
	c-0.037-2.094-0.044-3.338-0.037-5.292c0.002-0.264,0.002-0.535,0.002-0.794c0.007-0.496,0.011-0.983,0.016-1.451
	c0.007-0.289,0.007-0.551,0.014-0.824c0.002-0.269,0.005-0.535,0.009-0.792c0.002-0.239,0.009-0.484,0.011-0.707
	c0.014-0.425,0.023-0.833,0.041-1.205c0.002-0.119,0.002-0.225,0.009-0.34c0.005-0.282,0.014-0.542,0.028-0.783
	c0.005-0.124,0.009-0.241,0.016-0.356c0.009-0.223,0.023-0.402,0.032-0.565c0.005-0.053,0.005-0.129,0.012-0.174
	c0.021-0.236,0.034-0.491,0.044-0.769c0.06-1.915-0.188-5.423-3.816-6.358c-4.176-1.042-11.521-1.293-18.124-0.719
	c-0.923,0.083-1.125,0-0.843-0.257l0.007-0.06c1.424-1.015,10.959-6.284,21.867-16.047c11.999-10.764,17.725-16.487,21.394-24.275
	c0,0,13.133-25.478,12.474-47.056c-0.133-4.355,0.568-3.992,3.278-3.911c0.815,0.023,3.918-0.195,5.587-1.3
	c5.572-1.27,10.494-20.29,10.494-20.29s8.366-28.883,10.395-40.694c1.805-10.507,1.377-16.645-5.031-19.766l-1.074-0.607
	c-0.483-0.273-0.721-0.838-0.575-1.373c0.122-0.446,0.255-0.973,0.32-1.366c3.135-10.884,8.736-24.66,7.464-30.244
	c-0.221-1.603-1.58-2.125-2.052-2.444c-0.653-0.442-3.137-3.213-3.828-5.161c-0.1-0.283-0.138-0.58-0.164-0.879
	c-1.769-20.552-9.071-46.334-30.826-68.787c-0.032-0.021-1.495-1.364-2.388-2.177c-1.862-1.678-4.245-3.765-6.987-5.82
	c-5.793-4.33-10.415-7.655-19.943-12.41c-0.732-0.363-7.887-3.618-18.46-6.204c-0.99-0.266-1.988-0.523-2.994-0.76
	c-1.552-0.365-3.979-0.813-6.743-1.192c-6.514-1.019-13.746-1.566-21.268-1.104v0.005c-0.895,0.044-1.942,0.096-2.22,0.101
	c-0.45,0.007-0.921,0.03-1.38,0.048c-0.512,0.018-1.01,0.03-1.543,0.051c-1.591,0.076-3.69,0.317-5.894,0.631
	c-3.556,0.514-7.372,1.226-9.723,1.777c-2.631,0.641-6.178,1.38-10.612,2.65c-1.821,0.533-3.653,1.1-5.476,1.69
	c-0.512,0.163-1.026,0.321-1.534,0.487c-1.968,0.647-3.947,1.32-5.947,2.039c-1.451,0.51-7.616,3.18-8.957,3.798
	c-0.643,0.298-1.529,0.677-2.484,1.065c-4.346,1.378-5.26,3.889-5.416,5.272c-0.101,0.889-0.303,1.768-0.682,2.576
	c-6.261,13.307-20.988,14.596-26.835,14.887c-1.529,0.073-2.881,0.298-2.397,1.784c1.247,3.821,8.135,10.945,12.35,12.238
	c-0.06,0.608-3.612,1.38-4.355,1.577c-1.697,0.443-8.676-0.17-9.021-0.101c-0.03,0.002-0.055,0.007-0.085,0.009
	c-7.913,0.666-10.344,6.057-11.055,8.612c-0.22,0.793-0.093,1.647,0.358,2.335c1.747,2.663,3.585,4.832,4.97,8.346
	c0.016,0.037,0.03,0.076,0.046,0.115c0.358,0.925,0.686,1.945,0.973,3.088c0.168,1.506,1.373,3.074-0.149,6.027
	c-2.7,5.233-9.446,6.868-10.457,12.066c-1.437,7.389,1.112,12.224,3.909,24.438c1.917,8.372,3.988,17.027,5.472,20.952
	c0.078,0.206-0.044,0.421-0.261,0.463c-0.592,0.113-1.619,0.328-1.966,0.446c-3.908,1.555-5.137,4.632-5.582,10.65
	c-0.98,13.307,8.846,33.838,11.89,51.426c1.027,5.935,3.76,15.445,8.31,19.339c1.05,0.899,3.248,1.475,4.61,1.711
	c3.555,0.617,5.1-1.632,5.304,1.939c0.042,0.743,0.296,2.747,0.328,3.879C101.153,261.657,107.917,274.186,107.917,274.186"/>
</svg>
