<svg id="Layer_3_copy_2" data-name="Layer 3 copy 2" xmlns="http://www.w3.org/2000/svg" viewBox="0 0 504.34 324.52"><defs><style>.cls-1{fill:#fff;}.cls-2{fill:#231f20;}</style></defs><title>KFC_WordmarkColLockup_Horizontal_CMYK_Black-1</title><path class="cls-1" d="M204,126.56l-.83-.47a.94.94,0,0,1-.44-1.06c.09-.34.2-.75.25-1,2.42-8.42,6.75-19.08,5.77-23.4a2.64,2.64,0,0,0-1.59-1.89,12.24,12.24,0,0,1-3-4,2.62,2.62,0,0,1-.12-.68c-1.37-15.9-7-35.84-23.85-53.21l-1.84-1.68c-1.44-1.3-3.29-2.91-5.41-4.5A87.38,87.38,0,0,0,157.58,25a81.22,81.22,0,0,0-14.28-4.8c-.77-.21-1.54-.4-2.32-.59-1.2-.28-3.08-.63-5.21-.92a76.26,76.26,0,0,0-16.45-.85h0L117.6,18c-.35,0-.71,0-1.07,0l-1.19,0c-1.23,0-2.86.24-4.56.48-2.75.4-5.7.95-7.52,1.38-2,.49-4.78,1.07-8.21,2.05-1.41.41-2.83.85-4.24,1.3l-1.18.38c-1.52.5-3,1-4.6,1.58-1.12.39-5.89,2.46-6.93,2.94-.5.23-1.18.52-1.92.82C72.82,30,72.11,32,72,33a6.31,6.31,0,0,1-.53,2C66.62,45.32,55.23,46.32,50.71,46.54c-1.19.06-2.23.24-1.86,1.38,1,3,6.29,8.47,9.55,9.47,0,.47-2.79,1.07-3.36,1.22-1.32.34-6.72-.13-7-.08H48c-6.12.51-8,4.68-8.55,6.66A2.23,2.23,0,0,0,39.72,67a32.53,32.53,0,0,1,3.84,6.45.36.36,0,0,1,0,.09,19.32,19.32,0,0,1,.75,2.39c.13,1.16,1.06,2.38-.11,4.66-2.09,4.05-7.31,5.31-8.09,9.33-1.11,5.72.86,9.46,3,18.91,1.48,6.47,3.09,13.17,4.23,16.2a.26.26,0,0,1-.2.36,15.37,15.37,0,0,0-1.52.35c-3,1.2-4,3.58-4.32,8.23-.75,10.3,6.85,26.18,9.2,39.78.79,4.59,2.91,12,6.43,15A8.66,8.66,0,0,0,56.55,190c2.75.48,4-1.26,4.11,1.5,0,.58.22,2.13.25,3,.47,9.77,5.71,19.46,5.71,19.46.14,6,3.63,21.91,23.82,37,8.42,6.29,12.28,9.12,13.39,9.89v.05c.56.39-3,.3-3.95.39-1.59.15-7-.34-11.28.46-3.89.72-3.36,1.65-3.74,4.47-.31,2.23,0,5.76-.14,8.77s-.28,5.15,1,6.61,2.05,1.66,7.39,1.33c5.07-.31,19.13-.32,20.82-.66,2.18-.45,1.83.34.58,3-2.15,4.61-9.15,25.73-20,45.8-1.53,2.81,2.76,1.48,6.42,3.25,6.62,3.19,6.4,4.08,8.14.75,1.89-3.61,11.43-26.08,12.91-33,.19-.9.58-1.69.73-.33.11,1,.25,29.37-.54,38.32a1.62,1.62,0,0,0,.4,1.31,3.64,3.64,0,0,0,1.81.84h0c3.29-1.1,7.27-1.9,10.65-1.35a4.68,4.68,0,0,0,.86-.18,1.84,1.84,0,0,0,.46-.54,6,6,0,0,0,.52-1.55l0-.12c.16-.76.29-1.52.38-2.29,0-.45.08-.91.1-1.37s.07-1.18.09-1.77,0-1.43.05-2.14,0-1.65,0-2.48,0-1.84,0-2.76,0-.67-.06-1.67-.07-2.15-.12-3.23-.1-2.27-.17-3.4-.14-2.36-.22-3.54-.19-2.42-.29-3.63-.23-2.46-.36-3.69-.27-2.47-.42-3.7-.33-2.46-.51-3.68-.37-2.42-.58-3.63-.42-1.68-.66-2.85-.49-2.26-.76-3.39-.54-2.14-.85-3.21q-.36-1.26-.78-2.52a8.74,8.74,0,0,1-.25-1.43c.09-.42.61-.12,1.18-.23l.42-.08a80.42,80.42,0,0,1,11.32-.1c1.4,0,8.55.73,10.57.91s4.42.66,4.32-5.41c0-1.62,0-2.58,0-4.1v-.61c0-.38,0-.76,0-1.12s0-.43,0-.64,0-.41,0-.61,0-.38,0-.55q0-.5,0-.93a2.35,2.35,0,0,1,0-.27c0-.21,0-.41,0-.6s0-.19,0-.28,0-.31,0-.43a.66.66,0,0,1,0-.14c0-.18,0-.38,0-.59,0-1.48-.15-4.2-2.95-4.92-3.23-.81-8.91-1-14-.56-.72.07-.87,0-.65-.2v0a115.88,115.88,0,0,0,16.92-12.41c9.28-8.33,13.71-12.76,16.54-18.78,0,0,10.16-19.71,9.65-36.4-.1-3.37.44-3.08,2.54-3a9.23,9.23,0,0,0,4.32-1c4.31-1,8.12-15.69,8.12-15.69s6.47-22.34,8-31.48C209.31,133.72,209,129,204,126.56Z" transform="translate(-35.83 -17.74)"/><path class="cls-2" d="M200.56,141c-2,10.5-4.18,15.77-5.6,22.24-1.47,6.74-4.37,16.59-7.17,16.84-2.84.85-4-2.43-5.8,0-1.09,1.45-1.93,3.36-2.9,4.59a7.83,7.83,0,0,0-1.23,3.59,80.06,80.06,0,0,1-1.8,16c-2.56,12.11-7.21,20.94-12,26.51-9.25,10.66-17.91,12.38-18.94,12.92a5.3,5.3,0,0,1-4,0c-.66-.31-1.17-1.11-2.32-2.22s-1.59.57-1.63,1,.6,5.45-.69,7.73c-2.77,4.91-5.44,5.34-6.92,11.45-.5,2.07-.16,5.19-2.62,3.78-6-3.45-14.68-12.78-16.46-21.82-.55-2.75,0-5.82,1.64-11.06a33.28,33.28,0,0,0,1.66-8.47c0-3.49-1.37-6.46,0-6.76,2.53-.56,3.69,6,4.86,5.31,2-1.17.53-8.1.53-8.1s-.84-2-4.43-2.81c-2.06-.48-2.71-2-.51-3.1,1.64-.81,3.55-1.87,5.78-1.54,14.87,2.11,19.15-.88,25.16-2.5a3.61,3.61,0,0,1,2.8,0c.92.42,3.39,1.77,3.89,3s0,6.19.77,9.91,3.42.34,4.07-1.14a33.8,33.8,0,0,0,1.48-6c.14-.92.9-4.75,2.28-5.9a14.2,14.2,0,0,0,4.12-6.39c.45-1.17,1.17-4.75,1-10s-1.08-5.79-2.34-6.92-2.75-.9-5.94-3.82c-2.84-2.61-5.18-6.82-7.23-9.47a18.16,18.16,0,0,0-9.38-6.44c-3.89-.94-2.27,2.65-2.06,3.65.16.71,1.07,3.89-.22,4.94s-9.13,6.33-16.14,4.5c-8.35-2.18-11.24-6.83-11.41-11.33-.12-3.18,1.41-6.25,3.31-9.9,1.11-2.13,1.56-5.69,2-9.11a44.73,44.73,0,0,1,1.68-8.09c.43-1,1.44-2.11,3.7-2s3.71,1.24,4.12,3.17c1.45,6.72,3.82,8.42,4.63,9s2.32-.54,2.91-.94,2.12-1.92,1.65-2.75a10.27,10.27,0,0,1-1.29-2.79c-.28-1.28,1.32-1.12,1.65-.87,2.61,2.07,5.08,2.25,9.61,3,7.91,1.32,9-1.6,14.49-.65a4,4,0,0,1,2.48,1.53c.36.69,1,2.3,1.69,2.58a24.16,24.16,0,0,0,3.1.51c1.15.19,3.22.06,2.87,2.19-.89,5.7-7.47,7.27-10.54,7.8a6.19,6.19,0,0,0-2.06.5c-.66.59-.69,2.37.08,3.53.54.81,3,.86,6.43.2a14,14,0,0,0,9.65-6.59c2.86-4.44,4.42-14.23,4.75-16s1.06-4.89,2.07-5.51a23.6,23.6,0,0,1,6.27-1.92c.78.13,1.35.51,1.71,2.3s-.31,12.59-.33,14.22.88,1.72,1.37,1.49c1.08-.5,4-2.42,4.62-4.64.48-1.65-.91-4.05-.21-6.33,1.09-3.55,2.16-4.5,2.89-4.43,4.52.43,5.45,2.41,4.37,8.16M136.5,199a45.14,45.14,0,0,1-8.88,1.89c-2.37.13-9.89.64-11.15.58a9.09,9.09,0,0,1-5.34-2.4c-.34-.31-.71-1.4.67-1.42,2.58-.05,6.93-1.42,21.92-.15l2.74.23c.39,0,1.72.68,0,1.27m-36.86-6.08c-7.29-.1-10.67-2.81-11.19-3.63s.34-1.39,1.1-1.64a26.58,26.58,0,0,0,6-3c1.25-.93,4.68-3.08,6.42-4.19.82-.54,5.51-2.58,8.25-.67,4.11,2.87,8,4.79,15,4.36,4.53-.27,4.43-3.93,8.11-5.09a15.37,15.37,0,0,0,5-2.48c1.35-.27,2.34-.61,3.8.75,1.85,1.72,2.52,3.08,4.66,5.5a16.58,16.58,0,0,0,7.16,5,2.29,2.29,0,0,1,1.72,1.35c0,.33-.4,1.36-3.36,2.2a43.74,43.74,0,0,1-26-1.18,9.82,9.82,0,0,0-8.56.09c-3.08,1.51-11.31,2.7-18.12,2.62m-3.5,40.55c-5.59.17-20.2-8.65-26.57-33.67-1.66-6.44,2.4-11.66,4.92-12.56a13.43,13.43,0,0,1,2.77-.79,2.58,2.58,0,0,1,3,2.83c-.09,2.33,1.84,21.74,6.91,28.76,1.25,1.74,2.42,1.81,3,.27s1.41-3.28,1.7-4c.2-.5,2-3.32,2.59-1.18,1.17,4.55,3.89,13.9,5,16.32,1.9,4-1.23,3.93-3.32,4M66.77,158.75c-.39-1.69.36-4.21,4.33-1.66a21.85,21.85,0,0,0,4.57,1.85,1.81,1.81,0,0,0,2.42-1.08c.37-.91,1.4-2.71-.37-3.58s-6.1-1.63-8.59-7.74a2.26,2.26,0,0,1,1-2.67,2.14,2.14,0,0,1,2.39.61c.81.76,2.54,2.43,4.1,2.5a1.86,1.86,0,0,0,2-.85c1.2-1.35,4.65-6.39,11.79-5.52,2.95.36,5.67,1,6.66,1.09a18.92,18.92,0,0,0,4.55-.22c2.14-.4,5.33-1.06,3.77.75-1.27,1.46-2.33,2.07-1.22,3.67.06.08.11.16.17.23a4,4,0,0,1,0,4.7l-.13.18c-1.58,2.05-4.84,4.41-11.59,4.84-3.08.19-3.27.08-3.34,1.84a5.76,5.76,0,0,0,.09,1.51c.18.88.75,1.25,2.88,1.38a34.49,34.49,0,0,0,4.39-.21c.7-.21,1.52.24,1.07.82-.07.08-.35.51-.4.57a10.23,10.23,0,0,0-2.16,4.87,2.82,2.82,0,0,1-1.46,2.16h0c-1,.51-5,1.37-8.1,4s-9.64,4.72-12.45,1.54S68,164,66.77,158.75m-2-31.35c-.88.09-1.63-.44-2.58-.65-1.11-.24-1.79.1-2.25-.52s-.34-1.22.3-1.46a8.4,8.4,0,0,1,1.73-.18c1.31-.25,2.9-1.74,4.07-.09a1.87,1.87,0,0,1-1.27,2.9M53.91,167.17c-2.82-1.88-2.66-4.33-3.38-6.75C49,155.29,47.37,149.11,46,143.86c-.86-3.18-1.07-10.63,3.24-10.63,2.17,0,3.79.68,4.48,2.73,1.55,4.55-1.36,3.76-.62,9.14.53,3.8,1.26,7.55,2.46,14,.55,3,1.52,10.15-1.09,8.4M45.61,94.08C47.18,89.83,50,86.21,52,83.65c1.79-2.34.94-5.43,0-8.2a32,32,0,0,0-2.48-5.88,1.59,1.59,0,0,1,0-1.23l.33-.22,3.46-.29c9.87-1.27,18.58-4.74,21.22-6.21a24.13,24.13,0,0,1,4.07-1.78,26.71,26.71,0,0,1,5.07-1.34c1.29-.22,2.82-.42,4.13-.56,1.95-.22,5,1.15,4.35,1.55-1.65,1-9.33,2.77-16.08,10.83-4.14,4.93-5.1,8-6.49,10.25S67,83.39,65,85.11a12.48,12.48,0,0,0-3.92,5.32,86.51,86.51,0,0,0-5.25,27.95c0,1.8-.36,3.69-2.06,4.34h0c-1.4.57-2.53,1.49-2.76.49-.9-3.39-3-10.7-3.84-15.33-.28-1.46-.6-2.91-1-4.35-1-4-1.38-7.45-.64-9.45m30,37.55c-1.8,1.14-3.56,2.46-4.89,3.33-1.64,1.07-3.93,0-3.26-2.25.33-1.11,1.91-4,4.56-4.47.35-.07,1.67-.32,2.77-.45,1.29-.14,2.66-.26,3.36-.29,1.88-.08,2.08,1.43.81,2.21-.85.52-2.16,1.17-3.35,1.92M78.13,135a17.71,17.71,0,0,1,2.31-1.28c1.15-.64,2.47-1.43,3.8-2.29,2.4-1.56,7-3.18,8.89-3.16a7.85,7.85,0,0,1,5.14,2c1.36,1.48,1.73,3.2,0,2.9a14.85,14.85,0,0,0-7,0,38.22,38.22,0,0,0-8.17,3.12,10.92,10.92,0,0,1-4.37,1c-.6,0-2.32-1-.57-2.37M106,168.45a5,5,0,0,1,.46,2.73c-.13.69-2.55,1.59-4.56-1.42a7.28,7.28,0,0,1,.13-8.11c1.89-2.32,4.79-.63,4.37.22a8.24,8.24,0,0,0-.4,6.58m60.38-29.36c-.74.37-3.53-.56-4.3-1a24.11,24.11,0,0,1-4.73-3.25c-1.38-1.17-3.89-1.72-6.27-1.6a29.3,29.3,0,0,0-5,.8c-1.38.34-1.49-.92-1.08-1.39s2.35-2.24,6.58-3.35a8.4,8.4,0,0,1,2.4,0,10.09,10.09,0,0,1,5.39,2.84,48.08,48.08,0,0,0,6.25,5.11c.78.47,2.54,1,.79,1.88m-1.72-7a14.18,14.18,0,0,1-3.45-3.24c-.42-.71-.32-1.31.79-1.32,3.91,0,7.5-.14,9.25,1.33,1.27,1.07,1.3,3.3.68,4.75-.72,1.64-2.15,1.17-3,1.06s-4.29-2.58-4.29-2.58m19.64-5.87c-.59.65-1.12.26-2.34.56-1,.24-1.59.77-2.47.7a1.87,1.87,0,0,1-1.33-2.87c1.15-1.68,2.77-.22,4.07,0a8.53,8.53,0,0,1,1.74.15c.64.23.73.82.33,1.45M71.35,50.5a15.58,15.58,0,0,1,3.51-3.33c1.52-1.09,9-6.7,16-8.81,1.29-.39,1.62-.58,2.44-.78,1-.27,1.93-2.52-.25-2.84a18.73,18.73,0,0,0-4.41-.14c-1.22,0-1.8-.63-.92-1.58s2.5-1.94,5.34-3.08c6.19-2.47,17.16-3.78,22.28-4.24,6.67-.57,7.48-.55,11.82-.22a75.52,75.52,0,0,1,8.78,1.33c7.66,1.39,16.48,4.94,24.33,9.24A112.75,112.75,0,0,1,172,44.13c11.25,8.76,24.16,25.44,22.28,60.55a37.49,37.49,0,0,1-1,7.44c-.28,1-1.63,2.75-2.34.46-2.32-7.51-5.31-20.76-12.11-31.21-.94-1.46-2.4-1.32-2.26.21,0,.64.37,7.34.2,8.63-1.1,8.63,1.54,5.27,5.44,14.52a54,54,0,0,1,3.14,12.18c.1.91.23,2,.25,3,0,1.29-.61,1.37-.61,1.37-2.67,0-7.31-1.27-9.81-1.35-2.85-.09-22.62-.29-30,.29s-11.49,3.25-15.7,6.69a12.84,12.84,0,0,1-2.26,1.39,1.47,1.47,0,0,1-.9.13l-1.77-.35a12.45,12.45,0,0,0-5.79,0c-1.77.53-2.61,1-4.52-.12-2.73-1.59-6.91-8-21.51-8.08-8.27-.06-19.12-.17-25.51.11-2.06.09-3.14.32-3.67.31a5.2,5.2,0,0,1,0-.65c-.11-11.66,7.49-9.07,8.37-12.1C74,100,74.55,81.86,87.73,70.71c6.3-5.33,9.58-5.55,15.43-5.55a38.69,38.69,0,0,1,15.59,3.2c2.5,1.23,3.74,2.06,4.72,1.33s3.6-3.12,4.68-3.94.68-2.13-.35-3-10.33-12.56-24.67-14.93a50.34,50.34,0,0,0-8.7-1.05,37.39,37.39,0,0,0-6.79.38c-5.49.67-12.66,3.73-17.28,5.56-.25-.27.7-1.82,1-2.23M66.62,214c.14,6,3.63,21.91,23.82,37,8.42,6.29,12.28,9.12,13.39,9.89v.05c.56.39-3,.3-3.95.39-1.59.15-7-.34-11.28.46-3.89.72-3.36,1.65-3.74,4.47-.31,2.23,0,5.76-.14,8.77s-.28,5.15,1,6.61,2.05,1.66,7.39,1.33c5.07-.31,19.13-.32,20.82-.66,2.18-.45,1.83.34.58,3-2.15,4.61-9.15,25.73-20,45.8-1.53,2.81,2.76,1.48,6.42,3.25,6.62,3.19,6.4,4.08,8.14.75,1.89-3.61,11.43-26.08,12.91-33,.19-.9.58-1.69.73-.33.11,1,.25,29.37-.54,38.32a1.62,1.62,0,0,0,.4,1.31,3.64,3.64,0,0,0,1.81.84h0c3.29-1.1,7.27-1.9,10.65-1.35a4.68,4.68,0,0,0,.86-.18,1.84,1.84,0,0,0,.46-.54,6,6,0,0,0,.52-1.55l0-.12c.16-.76.29-1.52.38-2.29,0-.45.08-.91.1-1.37s.07-1.18.09-1.77,0-1.43.05-2.14,0-1.65,0-2.48,0-1.84,0-2.76,0-.67-.06-1.67-.07-2.15-.12-3.23-.1-2.27-.17-3.4-.14-2.36-.22-3.54-.19-2.42-.29-3.63-.23-2.46-.36-3.69-.27-2.47-.42-3.7-.33-2.46-.51-3.68-.37-2.42-.58-3.63-.42-1.68-.66-2.85-.49-2.26-.76-3.39-.54-2.14-.85-3.21q-.36-1.26-.78-2.52a8.74,8.74,0,0,1-.25-1.43c.09-.42.61-.12,1.18-.23l.42-.08a80.42,80.42,0,0,1,11.32-.1c1.4,0,8.55.73,10.57.91s4.42.66,4.32-5.41c0-1.62,0-2.58,0-4.1v-.61c0-.38,0-.76,0-1.12s0-.43,0-.64,0-.41,0-.61,0-.38,0-.55q0-.5,0-.93a2.35,2.35,0,0,1,0-.27c0-.21,0-.41,0-.6s0-.19,0-.28,0-.31,0-.43a.66.66,0,0,1,0-.14c0-.18,0-.38,0-.59.05-1.48-.15-4.2-2.95-4.92-3.23-.81-8.91-1-14-.56-.72.07-.87,0-.65-.2v0a115.88,115.88,0,0,0,16.92-12.41c9.28-8.33,13.71-12.76,16.54-18.78,0,0,10.16-19.71,9.65-36.4-.1-3.37.44-3.08,2.54-3a9.23,9.23,0,0,0,4.32-1c4.31-1,8.12-15.69,8.12-15.69s6.47-22.34,8-31.48c1.39-8.13,1.06-12.87-3.9-15.29l-.83-.47a.94.94,0,0,1-.44-1.06c.09-.34.2-.75.25-1,2.42-8.42,6.75-19.08,5.77-23.4a2.64,2.64,0,0,0-1.59-1.89,12.24,12.24,0,0,1-3-4,2.62,2.62,0,0,1-.12-.68c-1.37-15.9-7-35.84-23.85-53.21l-1.84-1.68c-1.44-1.3-3.29-2.91-5.41-4.5A87.38,87.38,0,0,0,157.58,25a81.22,81.22,0,0,0-14.28-4.8c-.77-.21-1.54-.4-2.32-.59-1.2-.28-3.08-.63-5.21-.92a76.26,76.26,0,0,0-16.45-.85h0L117.6,18c-.35,0-.71,0-1.07,0l-1.19,0c-1.23,0-2.86.24-4.56.48-2.75.4-5.7.95-7.52,1.38-2,.49-4.78,1.07-8.21,2.05-1.41.41-2.83.85-4.24,1.3l-1.18.38c-1.52.5-3,1-4.6,1.58-1.12.39-5.89,2.46-6.93,2.94-.5.23-1.18.52-1.92.82C72.82,30,72.11,32,72,33a6.31,6.31,0,0,1-.53,2C66.62,45.32,55.23,46.32,50.71,46.54c-1.19.06-2.23.24-1.86,1.38,1,3,6.29,8.47,9.55,9.47,0,.47-2.79,1.07-3.36,1.22-1.32.34-6.72-.13-7-.08H48c-6.12.51-8,4.68-8.55,6.66A2.23,2.23,0,0,0,39.72,67a32.53,32.53,0,0,1,3.84,6.45.36.36,0,0,1,0,.09,19.32,19.32,0,0,1,.75,2.39c.13,1.16,1.06,2.38-.11,4.66-2.09,4.05-7.31,5.31-8.09,9.33-1.11,5.72.86,9.46,3,18.91,1.48,6.47,3.09,13.17,4.23,16.2a.26.26,0,0,1-.2.36,15.37,15.37,0,0,0-1.52.35c-3,1.2-4,3.58-4.32,8.23-.75,10.3,6.85,26.18,9.2,39.78.79,4.59,2.91,12,6.43,15A8.66,8.66,0,0,0,56.55,190c2.75.48,4-1.26,4.11,1.5,0,.58.22,2.13.25,3,.47,9.77,5.71,19.46,5.71,19.46M538,111.32a98,98,0,0,0-26.44-3.62c-56.82,0-71.23,32.09-73.56,53.87-2.62,24.45,14.3,48.44,56,48.44,17.56,0,29-3.06,33.11-4.36a2.93,2.93,0,0,0,2-2.24l2.35-12.34a2.5,2.5,0,0,0-3.21-2.85,76.53,76.53,0,0,1-22.84,3.41c-19.94,0-34.33-12-32.51-32.57,1.76-19.95,15.22-35.13,33.73-35.13,11.13,0,16.05,5.82,15.69,13.61,0,0,0,.13,0,.44a2.49,2.49,0,0,0,2.48,2.62h7.55a2.48,2.48,0,0,0,2.43-1.95l5.31-23.89A2.91,2.91,0,0,0,538,111.32ZM303,111.37l-1.38,6.23a2.72,2.72,0,0,0,1.87,3.2h0c2.41.92,2.94,3.23.85,5l-34.9,29s0,0,0,0l6-27.33a9.25,9.25,0,0,1,6.45-6.6l.35-.11a2.71,2.71,0,0,0,1.83-2l1.44-6.48a2.46,2.46,0,0,0-2.41-3h-45a2.7,2.7,0,0,0-2.64,2.12L234,117.94a2.67,2.67,0,0,0,1.76,3.12l.44.16c2.82,1.1,6.1,3.59,4.71,10.13l-10.72,49.11c-2.81,13.41-7.36,16.15-11.69,16.65l-.14,0a2.72,2.72,0,0,0-2.36,2.12l-1.4,6.29a2.61,2.61,0,0,0,2.54,3.17h47.3a2.49,2.49,0,0,0,2.42-1.94l1.63-7.36a2.5,2.5,0,0,0-1.53-2.86l-.3-.12c-2.4-1-5.67-3-4.83-6.94l5.5-25.11h0c18.83,34.43,25.07,44.34,47.68,44.34h20.41a2.46,2.46,0,0,0,2.4-1.93l1.43-6.38a2.64,2.64,0,0,0-2.52-3.23c-5.1-.08-7.61-1.27-12.69-7.8L297.8,153.9h0l34.06-28.33c4.57-3.57,10.14-4.58,13.23-5l.31,0a2.51,2.51,0,0,0,2.21-2L349,112.3a2.5,2.5,0,0,0-2.44-3h-41A2.7,2.7,0,0,0,303,111.37Zm126,27.28h8a2.48,2.48,0,0,0,2.42-1.94l5.42-24.42a2.49,2.49,0,0,0-2.43-3H358.57a2.72,2.72,0,0,0-2.65,2.13l-1.45,6.54a2.6,2.6,0,0,0,1.66,3l.28.1c2.76,1,6.6,3.72,4.93,10.28L344.92,205.7a2.48,2.48,0,0,0,2.42,3H385a2.48,2.48,0,0,0,2.42-1.94l1.65-7.43a2.37,2.37,0,0,0-1.35-2.67l-.36-.16c-2.39-1.17-5.95-3.87-4.76-9.08.13-.7,3.69-16.83,3.69-16.83h32.05a2.5,2.5,0,0,0,2.43-1.95l3-13.58a2.49,2.49,0,0,0-2.43-3H390.42l5.78-26.34,21.62,0c7,0,9.12,3.65,8.71,9.87,0,0,0,.08,0,.34A2.49,2.49,0,0,0,429,138.65Z" transform="translate(-35.83 -17.74)"/></svg>