<?xml version="1.0" encoding="utf-8"?>
<!-- Generator: Adobe Illustrator 22.0.1, SVG Export Plug-In . SVG Version: 6.00 Build 0)  -->
<svg version="1.1" id="Слой_1" xmlns="http://www.w3.org/2000/svg" xmlns:xlink="http://www.w3.org/1999/xlink" x="0px" y="0px"
	 viewBox="0 0 290 260" enable-background="new 0 0 290 260" xml:space="preserve">
<g>
	<g>
		<path fill-rule="evenodd" clip-rule="evenodd" fill="#0E1314" d="M178.857,22.854l-0.199,0.478
			c2.558,3.129,4.69,6.612,6.302,10.361c2.282,5.304,3.546,11.139,3.546,17.252c0,12.067-4.894,22.995-12.802,30.906
			c-7.908,7.909-18.839,12.802-30.906,12.802c-12.067,0-22.997-4.894-30.906-12.802c-7.908-7.911-12.802-18.838-12.802-30.906
			c0-12.067,4.894-22.995,12.802-30.906c7.909-7.909,18.839-12.802,30.906-12.802c3.414,0,6.829,0.426,10.186,1.23
			c2.79,0.667,5.428,1.57,7.892,2.684c2.901,0.037,5.022,0.298,7.952,0.658l1.688,0.209c0.704,0.088,1.407,0.269,2.094,0.554
			C178.62,14.238,180.523,18.842,178.857,22.854"/>
		<path fill="#FFFFFF" d="M144.798,99.653c-13.011,0-25.242-5.067-34.441-14.267c-9.2-9.203-14.267-21.434-14.267-34.441
			c0-13.007,5.066-25.238,14.266-34.44c9.2-9.201,21.432-14.268,34.442-14.268c3.745,0,7.564,0.46,11.352,1.368
			c2.703,0.646,5.332,1.509,7.825,2.569c2.662,0.083,4.803,0.346,7.433,0.668l1.722,0.213c1.174,0.146,2.316,0.449,3.399,0.899
			c3.171,1.317,5.642,3.792,6.954,6.969c0.986,2.386,1.229,4.953,0.731,7.427c2.129,2.924,3.92,6.065,5.339,9.367
			c2.623,6.096,3.953,12.565,3.953,19.226c0,13.007-5.066,25.238-14.267,34.441C170.04,94.586,157.808,99.653,144.798,99.653z
			 M144.798,12.237c-10.339,0-20.06,4.027-27.371,11.338c-7.311,7.313-11.337,17.033-11.337,27.37
			c0,10.337,4.026,20.057,11.338,27.371c7.311,7.311,17.031,11.338,27.37,11.338s20.059-4.027,27.37-11.338
			c7.311-7.313,11.338-17.034,11.338-27.37c0-5.294-1.057-10.434-3.14-15.276c-1.412-3.284-3.289-6.37-5.58-9.172l-1.897-2.321
			l1.351-3.241c0.293-0.706,0.294-1.485,0.001-2.192c-0.292-0.708-0.843-1.26-1.55-1.553c-0.254-0.105-0.521-0.176-0.795-0.21
			l-1.683-0.208c-2.89-0.354-4.783-0.586-7.401-0.62l-1.045-0.013l-0.951-0.43c-2.199-0.994-4.552-1.794-6.994-2.377
			C150.794,12.604,147.759,12.237,144.798,12.237z"/>
	</g>
	<g>
		<path fill="#FFFFFF" d="M262.416,114.055L78.094,7.634c-5.781-3.345-12.97-3.345-18.761,0c-5.785,3.341-9.379,9.566-9.379,16.248
			v212.843c0,6.681,3.594,12.906,9.38,16.249c2.842,1.635,6.085,2.499,9.379,2.499c3.293,0,6.536-0.864,9.38-2.499L262.417,146.55
			c5.785-3.348,9.379-9.574,9.379-16.248C271.796,123.629,268.203,117.404,262.416,114.055z"/>
		<radialGradient id="SVGID_1_" cx="68.4647" cy="23.1347" r="46.4825" gradientUnits="userSpaceOnUse">
			<stop  offset="1.953869e-07" style="stop-color:#FFBFAA"/>
			<stop  offset="0.0141" style="stop-color:#FCB9A4"/>
			<stop  offset="0.1216" style="stop-color:#EA907C"/>
			<stop  offset="0.2355" style="stop-color:#DA6D5A"/>
			<stop  offset="0.3551" style="stop-color:#CD503F"/>
			<stop  offset="0.4824" style="stop-color:#C33A29"/>
			<stop  offset="0.621" style="stop-color:#BC2A1A"/>
			<stop  offset="0.7791" style="stop-color:#B72111"/>
			<stop  offset="1" style="stop-color:#B61E0E"/>
		</radialGradient>
		<path fill="url(#SVGID_1_)" d="M259.827,131.164c-0.255,2.002-1.383,3.918-3.372,5.071L72.131,242.644
			c-1.989,1.152-4.209,1.177-6.065,0.388c-2.39-1.007-4.197-3.348-4.197-6.308V23.881c0-5.265,5.701-8.564,10.262-5.92
			l182.456,105.33l1.868,1.08C259.027,125.863,260.143,128.592,259.827,131.164z"/>
		<path fill-rule="evenodd" clip-rule="evenodd" fill="#9D140A" d="M113.035,42.271c-5.168,4.816-10.711,10.444-16.546,17.031
			C62.681,97.417,61.82,118.524,61.82,118.524s20.088-30.472,59.5-71.546L113.035,42.271z M167.247,73.083
			c-22.611,9.122-28.398,18.002-28.398,18.002s13.004-6.308,35.712-13.841L167.247,73.083z M153.479,65.259
			c-27.282,14.46-33.286,26.408-33.48,26.809c0.352-0.23,15.139-9.983,41.147-22.454L153.479,65.259z M140.147,57.677
			c-34.524,22.793-39.764,39.194-39.764,39.194s17.007-14.909,47.819-34.609L140.147,57.677z M126.767,50.071
			c-2.341,1.868-4.743,3.858-7.206,5.98c-35.433,30.521-38.806,49.614-38.806,49.614s18.96-21.75,54.345-50.863L126.767,50.071z"/>
		<path fill-rule="evenodd" clip-rule="evenodd" fill="#A1CF0A" d="M259.827,131.164c-0.255,2.002-1.383,3.918-3.372,5.071
			l-83.009,47.916l-32,18.475l-18.196,10.505l-22.915,13.234l-10.25,5.908l-17.953,10.372c-0.594,0.352-1.201,0.594-1.82,0.74
			c-1.456,0.352-2.948,0.206-4.246-0.352c-0.437-0.182-0.861-0.412-1.249-0.679c-1.747-1.213-2.948-3.215-2.948-5.629v-90.069
			c26.869-28.652,65.08-46.557,107.465-46.557C203.444,100.097,234.863,111.694,259.827,131.164z"/>
		<path fill="#07B12D" d="M61.869,205.949v30.775c0,2.414,1.201,4.416,2.948,5.629c9.68-29.938,22.466-65.105,39.145-103.583
			C103.962,138.77,82.903,155.619,61.869,205.949z M143.774,199.883c-0.788,0.922-1.577,1.832-2.329,2.742l32-18.475
			c11.002-11.779,23.303-24.285,36.901-37.204C209.51,147.188,182.119,155.352,143.774,199.883z M112.477,206.24
			c-4.67,7.181-8.698,13.889-12.143,20.125l22.915-13.234c14.435-22.029,32.571-47.588,54.588-74.967
			C177.837,138.163,148.59,150.743,112.477,206.24z M80.889,218.904c-4.185,8.807-7.667,16.958-10.578,24.479
			c0.619-0.146,1.225-0.388,1.82-0.74l17.953-10.372c12.955-27.658,30.072-60.835,51.943-97.057
			C142.027,135.215,112.041,153.205,80.889,218.904z"/>
		<g>
			<path fill="#0E1314" d="M68.714,249.043c-2.113,0-4.226-0.556-6.152-1.668c-3.852-2.224-6.152-6.207-6.152-10.655V23.885
				c0-4.448,2.299-8.432,6.152-10.655c3.854-2.225,8.452-2.224,12.304,0l184.32,106.417c3.852,2.224,6.152,6.207,6.152,10.655
				c0,4.448-2.299,8.431-6.152,10.655L74.866,247.375C72.939,248.487,70.827,249.043,68.714,249.043z M68.715,22.489
				c-0.276,0-0.514,0.092-0.694,0.196c-0.316,0.182-0.693,0.539-0.693,1.201V236.72c0,0.662,0.377,1.018,0.693,1.201
				c0.317,0.182,0.811,0.332,1.386,0l184.32-106.417c0.573-0.331,0.693-0.836,0.693-1.201s-0.12-0.87-0.693-1.201L69.407,22.685
				C69.159,22.542,68.926,22.489,68.715,22.489z"/>
		</g>
	</g>
	<path opacity="0.25" fill-rule="evenodd" clip-rule="evenodd" d="M179.174,196.301c-5.82,0.31-12.47,0.64-12.6,0.51
		c-0.24-0.24-9.5,3.1-9.5,3.1l-11.12,6.39c-39.82-0.44-61.53,5.57-79.15,8.53c-3.66,0.61-6.81-2.58-6.17-6.22l4.9-27.64l-3.66-24.31
		l43.02-8.4l69.67,32.71C174.564,180.971,179.314,189.131,179.174,196.301z"/>
	<g>
		<path fill="#FFFFFF" d="M286.4,161.399c-1.538-6.583-3.098-11.588-4.605-16.429c-1.211-3.884-2.364-7.587-3.536-12.121
			c0.206-0.212,0.419-0.426,0.607-0.617c1.807-1.826,4.281-4.327,4.7-7.949c0.089-0.767,0.04-1.544-0.144-2.294
			c-0.5-2.039-0.995-4.08-1.484-6.117l-1.469-6.143c-0.57-2.393-2.443-4.259-4.839-4.82c-86.808-20.348-174.844-20.348-261.663,0
			c-2.396,0.562-4.269,2.427-4.839,4.82l-1.471,6.145c-0.488,2.038-0.982,4.075-1.482,6.112c-0.185,0.752-0.233,1.532-0.144,2.302
			c0.422,3.622,2.896,6.121,4.762,8.006c0.145,0.145,0.31,0.312,0.477,0.483l-7.999,28.333c-0.808,2.863,0.43,5.908,3.006,7.396
			l27.169,15.685c0.988,0.57,2.109,0.871,3.25,0.871h36.191l-2.269,11.385c-0.35,1.77-0.12,3.58,0.56,5.08
			c0.42,0.91,1,1.71,1.73,2.31l3.26,2.67c5.95-1.35,15.44-3.24,27.4-4.72h-12.98l-4.21-3.46l-4-3.27l1.99-9.995h111.165
			c0.304,1.46,0.605,2.831,0.905,4.175c0.41,1.91,0.82,3.74,1.21,5.76l-4.24,3.47l-4.04,3.32h-12.54
			c8.69,1.16,17.57,2.82,26.52,5.08l3.7-3.03c0.6-0.49,1.1-1.1,1.48-1.8c0.84-1.51,1.17-3.41,0.86-5.31
			c-0.74-4.48-1.48-7.87-2.21-11.18c-0.036-0.163-0.071-0.323-0.106-0.485h45.834c1.142,0,2.262-0.3,3.25-0.871l27.164-15.685
			C285.8,167.074,287.051,164.188,286.4,161.399z M251.163,172.063H38.437l-21.28-12.286l7.405-26.232
			c0.256-0.907,0.312-1.859,0.163-2.791c-0.545-3.413-2.844-5.736-4.753-7.666c-0.15-0.152-0.348-0.351-0.547-0.558
			c0.293-1.208,0.585-2.416,0.874-3.622l0.536-2.242c82.287-18.687,165.652-18.688,247.926,0l0.536,2.243
			c0.29,1.207,0.582,2.414,0.875,3.621c-0.211,0.218-0.423,0.433-0.593,0.604c-1.854,1.87-4.159,4.198-4.707,7.615
			c-0.137,0.851-0.103,1.721,0.101,2.559c1.497,6.182,2.978,10.934,4.409,15.53c1.099,3.525,2.152,6.908,3.198,10.858
			L251.163,172.063z"/>
		<g>
			<path fill-rule="evenodd" clip-rule="evenodd" fill="#0E1314" d="M271.29,131.779c0.219-1.371,1.594-2.744,2.953-4.117
				c1.36-1.374,2.705-2.749,2.865-4.124c-0.502-2.049-1-4.098-1.491-6.147c-0.492-2.05-0.982-4.101-1.471-6.151
				c-85.603-20.066-172.894-20.11-258.696,0c-0.49,2.051-0.98,4.103-1.472,6.151c-0.492,2.049-0.989,4.098-1.491,6.147
				c0.16,1.375,1.505,2.75,2.865,4.124c1.359,1.373,2.734,2.746,2.953,4.117l-8.78,31.099l27.169,15.685h216.21l27.164-15.685
				C277.185,150.533,274.272,144.097,271.29,131.779"/>
			<g>
				<defs>
					<path id="SVGID_2_" d="M271.29,131.779c0.219-1.371,1.594-2.744,2.953-4.117c1.36-1.374,2.705-2.749,2.865-4.124
						c-0.502-2.049-1-4.098-1.491-6.147c-0.492-2.05-0.982-4.101-1.471-6.151c-85.603-20.066-172.894-20.11-258.696,0
						c-0.49,2.051-0.98,4.103-1.472,6.151c-0.492,2.049-0.989,4.098-1.491,6.147c0.16,1.375,1.505,2.75,2.865,4.124
						c1.359,1.373,2.734,2.746,2.953,4.117l-8.78,31.099l27.169,15.685h216.21l27.164-15.685
						C277.185,150.533,274.272,144.097,271.29,131.779"/>
				</defs>
				<clipPath id="SVGID_3_">
					<use xlink:href="#SVGID_2_"  overflow="visible"/>
				</clipPath>
				<path clip-path="url(#SVGID_3_)" fill-rule="evenodd" clip-rule="evenodd" fill="#2A2E31" d="M9.995,121.71l16.044-4.845
					c0.557-2.374,2.494-4.294,5.036-4.709c83.57-17.23,157.151-12.336,227.295,0.053c1.139,0.203,2.194,0.719,3,1.446
					c1.014,0.867,1.707,2.032,2.006,3.299l15.751,4.757c0,0-6.627,11.698-7.199,8.18c-0.573-3.518-1.309-5.726-5.236-5.48
					c-2.099,0.131-3.38,0.939-4.117,1.664l-0.176,1.332l5.434,23.843l0.051-0.026c0.645,2.904,2.387,5.292,5.357,7.164
					c2.969,1.872,5.615,2.711,4.066,2.711c-1.549,0-5.584,0.388-14.168,5.745c-8.584,5.357-14.33,8.327-15.297,8.843
					c-0.968,0.516-0.082-1.226,5.874-6.003c5.956-4.777,9.071-8.073,6.312-9.496c-0.15-0.018-0.302-0.043-0.451-0.073
					c-3.129-0.535-6.26-1.061-9.394-1.566c-6.516-1.054-7.416-0.849-8.413-0.221l-6.459,5.217c0,0-1.183,0.136,0.245-1.46
					c0.97-1.084,2.176-2.907,1.802-4.185c-0.429-1.465-3.723-1.781-5.049-1.961l-1.019-0.138c-4.248-0.577-4.686-0.571-5.202-0.141
					l-4.44,3.586c0,0-0.765,0.087,0.159-0.943c0.694-0.775,1.572-2.133,1.052-2.955c-0.513-0.811-3.004-0.979-3.85-1.062
					c-52.071-5.161-99.639-5.77-154.132,0.243c-2.782,0.846-1.675,3.638-0.666,5.12c1.009,1.482-0.064,1.387-0.064,1.387
					l-5.242-5.119c-0.563-0.804-5.388,0.473-14.157,1.777c-2.513,0.375-5.027,0.753-7.535,1.162l-1.764,0.292
					c-0.144,0.048,1.259-0.33-0.474,0.146c-1.733,0.475-3.486,3.098,1.678,7.551c5.164,4.454,7.358,6.648,6.649,6.648
					s-21.394-12.328-23.911-13.103c-2.517-0.775-7.229-0.646-3.42-2.324c3.808-1.678,4.066-2.258,4.841-5.551l0.008,0.003
					l5.953-24.467l-0.182-1.933c-0.731-0.735-2.019-1.573-4.159-1.706c-3.926-0.246-4.663,1.962-5.236,5.48
					C16.621,133.408,9.995,121.71,9.995,121.71"/>
				<g clip-path="url(#SVGID_3_)">
					<defs>
						<path id="SVGID_4_" d="M9.995,121.71l16.044-4.845c0.557-2.374,2.494-4.294,5.036-4.709
							c83.57-17.23,157.151-12.336,227.295,0.053c1.139,0.203,2.194,0.719,3,1.446c1.014,0.867,1.707,2.032,2.006,3.299
							l15.751,4.757c0,0-6.627,11.698-7.199,8.18c-0.573-3.518-1.309-5.726-5.236-5.48c-2.099,0.131-3.38,0.939-4.117,1.664
							l-0.176,1.332l5.434,23.843l0.051-0.026c0.645,2.904,2.387,5.292,5.357,7.164c2.969,1.872,5.615,2.711,4.066,2.711
							c-1.549,0-5.584,0.388-14.168,5.745c-8.584,5.357-14.33,8.327-15.297,8.843c-0.968,0.516-0.082-1.226,5.874-6.003
							c5.956-4.777,9.071-8.073,6.312-9.496c-0.15-0.018-0.302-0.043-0.451-0.073c-3.129-0.535-6.26-1.061-9.394-1.566
							c-6.516-1.054-7.416-0.849-8.413-0.221l-6.459,5.217c0,0-1.183,0.136,0.245-1.46c0.97-1.084,2.176-2.907,1.802-4.185
							c-0.429-1.465-3.723-1.781-5.049-1.961l-1.019-0.138c-4.248-0.577-4.686-0.571-5.202-0.141l-4.44,3.586
							c0,0-0.765,0.087,0.159-0.943c0.694-0.775,1.572-2.133,1.052-2.955c-0.513-0.811-3.004-0.979-3.85-1.062
							c-52.071-5.161-99.639-5.77-154.132,0.243c-2.782,0.846-1.675,3.638-0.666,5.12c1.009,1.482-0.064,1.387-0.064,1.387
							l-5.242-5.119c-0.563-0.804-5.388,0.473-14.157,1.777c-2.513,0.375-5.027,0.753-7.535,1.162l-1.764,0.292
							c-0.144,0.048,1.259-0.33-0.474,0.146c-1.733,0.475-3.486,3.098,1.678,7.551c5.164,4.454,7.358,6.648,6.649,6.648
							s-21.394-12.328-23.911-13.103c-2.517-0.775-7.229-0.646-3.42-2.324c3.808-1.678,4.066-2.258,4.841-5.551l0.008,0.003
							l5.953-24.467l-0.182-1.933c-0.731-0.735-2.019-1.573-4.159-1.706c-3.926-0.246-4.663,1.962-5.236,5.48
							C16.621,133.408,9.995,121.71,9.995,121.71"/>
					</defs>
					<clipPath id="SVGID_5_">
						<use xlink:href="#SVGID_4_"  overflow="visible"/>
					</clipPath>
					<defs>
						<filter id="Adobe_OpacityMaskFilter" filterUnits="userSpaceOnUse" x="-3.807" y="146.824" width="292.801" height="63.605">
							<feFlood  style="flood-color:white;flood-opacity:1" result="back"/>
							<feBlend  in="SourceGraphic" in2="back" mode="normal"/>
						</filter>
					</defs>
					<mask maskUnits="userSpaceOnUse" x="-3.807" y="146.824" width="292.801" height="63.605" id="SVGID_6_">
						<g filter="url(#Adobe_OpacityMaskFilter)">
							
								<linearGradient id="SVGID_7_" gradientUnits="userSpaceOnUse" x1="63.23" y1="262.5521" x2="63.23" y2="344.8421" gradientTransform="matrix(1 0 0 1 79.3636 -160.4021)">
								<stop  offset="0" style="stop-color:#FFFFFF"/>
								<stop  offset="1" style="stop-color:#141414"/>
							</linearGradient>
							<rect x="-3.807" y="146.824" clip-path="url(#SVGID_5_)" fill="url(#SVGID_7_)" width="292.801" height="63.606"/>
						</g>
					</mask>
					<path clip-path="url(#SVGID_5_)" mask="url(#SVGID_6_)" fill-rule="evenodd" clip-rule="evenodd" fill="#636769" d="
						M21.001,151.993c0.09,3.673-2.867,6.092,11.557,4.031s62.625-10.75,122.649-8.959c60.024,1.792,92.278,8.064,102.491,10.034
						c10.213,1.971,12.453,1.792,13.349,0.179c0.896-1.613,7.256-2.688,10.392-1.075c3.136,1.612,7.525,13.259,7.525,13.259
						s2.329,20.426-34.582,25.085c-36.911,4.659-185.271,17.201-190.288,15.768c-5.017-1.433-53.754-3.584-62.713-20.068
						C-7.577,173.764-7.219,151.187,21.001,151.993"/>
				</g>
			</g>
		</g>
		<g>
			<path fill-rule="evenodd" clip-rule="evenodd" fill="#0E1314" d="M151.57,122.489l0.009-0.361l0.009-0.38l0.009-0.379l0.009-0.38
				l0.009-0.38l0.009-0.38l-0.039-0.418l-0.129-0.392l-0.21-0.357l-0.281-0.313l-0.343-0.26l-0.395-0.199l-0.437-0.128l-0.47-0.048
				l-0.65-0.008l-0.65-0.006l-0.65-0.006l-0.65-0.004l-0.65-0.004l-0.65-0.002l-0.651-0.001l-0.651-0.001l-0.651,0.001l-0.651,0.002
				l-0.652,0.003l-0.653,0.003l-0.653,0.004l-0.653,0.005l-0.654,0.006l-0.654,0.007l-0.014,0.32l-0.015,0.321l-0.016,0.321
				l-0.016,0.32l-0.017,0.321l-0.018,0.321l-0.017,0.321l-0.018,0.321l-0.018,0.321l-0.018,0.321l-0.018,0.32l-0.018,0.321
				l-0.018,0.321l-0.018,0.32l-0.017,0.321l-0.017,0.32l-0.016,0.32l-0.016,0.32l-0.016,0.32l-0.002,0.039
				c3.496-0.033,7.016-0.047,10.51-0.012C150.31,124.24,151.349,123.487,151.57,122.489 M163.195,126.9l-0.368,4.063l-0.116,0.629
				l-0.186,0.606l-0.255,0.579l-0.319,0.55l-0.379,0.518l-0.436,0.483l-0.489,0.444l-0.538,0.402l-0.584,0.357l-0.624,0.309
				l-0.662,0.257l-0.696,0.204l-0.726,0.145l-0.753,0.085l-0.774,0.021l-0.545-0.008l-0.545-0.008l-0.545-0.007l-0.545-0.007
				l-0.545-0.007l-0.545-0.006l-0.545-0.006l-0.544-0.006l-0.544-0.005l-0.545-0.005l-0.544-0.005l-0.544-0.004l-0.544-0.004
				l-0.544-0.003l-0.544-0.002l-0.543-0.003l-0.544-0.002l-0.544-0.002l-0.543-0.001l-0.544-0.001l-0.544-0.001h-0.543l-0.543,0
				l-0.543,0.001l-0.543,0.002l-0.543,0.002l-0.543,0.002l-0.543,0.002l-0.543,0.003l-0.543,0.003l-0.543,0.004l-0.543,0.005
				l-0.014,0.344l-0.015,0.344l-0.015,0.344l-0.016,0.343l-0.016,0.344l-0.016,0.343l-0.016,0.343l-0.016,0.343l-0.017,0.344
				l-0.016,0.343l-0.016,0.344l-0.016,0.343l-0.015,0.344l-0.016,0.343l-0.014,0.343l-0.014,0.344l-0.013,0.343l-0.012,0.343
				l-0.011,0.343l-0.011,0.343l-0.01,0.343l-0.009,0.343l-0.008,0.343l-0.008,0.343l-0.008,0.343l-0.008,0.344l-0.008,0.343
				l-0.008,0.343l-0.008,0.344l-0.008,0.344l-0.008,0.344l-0.009,0.344l-0.425,0.003l-0.425,0.003l-0.425,0.004l-0.425,0.003
				l-0.425,0.004l-0.425,0.004l-0.425,0.005l-0.426,0.005l-0.425,0.005l-0.426,0.006l-0.426,0.006l-0.425,0.006l-0.426,0.007
				l-0.425,0.007l-0.426,0.007l-0.426,0.007l-0.425,0.008l-0.426,0.008l-0.426,0.009l-0.426,0.008l-0.426,0.009l-0.426,0.009
				l-0.426,0.009l-0.426,0.01l-0.426,0.01l-0.426,0.01l-0.425,0.011l-0.425,0.011l-0.426,0.011l-0.425,0.012l-0.425,0.012
				l-0.425,0.012l-0.427-3.721c0.876-12.922,2.076-25.513,2.931-38.258c4.244-0.139,8.514-0.193,12.784-0.243
				c5.584-0.055,11.142,0.012,16.725,0.099c4.017,0.062,7.322,3.143,7.353,6.717c0.02,2.328,0.025,4.652,0.025,6.97
				c0,2.318-0.025,4.642-0.025,6.965C163.234,126.462,163.221,126.683,163.195,126.9z M240.487,127.644l0.101,0.538l0.101,0.538
				l0.1,0.538l0.099,0.538l0.098,0.538l0.097,0.537l0.097,0.537l0.096,0.537l0.096,0.537l0.096,0.537l0.096,0.537l0.096,0.537
				l0.096,0.537l0.097,0.537l0.097,0.537l0.097,0.537l0.097,0.537l0.096,0.536l0.096,0.536l0.096,0.537l0.096,0.537l0.095,0.536
				l0.095,0.536l0.095,0.536l0.014,0.083c-3.988-0.605-7.949-1.152-11.909-1.676c-0.455-2.919-0.884-5.844-1.314-8.762
				c-0.209-1.422-0.418-2.846-0.631-4.271l0.24,0.034l0.433,0.061l0.433,0.062l0.433,0.062l0.432,0.062l0.434,0.063l0.433,0.064
				l0.433,0.063l0.433,0.063l0.434,0.064l0.433,0.065l0.434,0.065l0.433,0.065l0.434,0.066l0.434,0.066l0.433,0.066l0.434,0.067
				l0.433,0.067l0.434,0.067l0.434,0.068l0.434,0.068l0.434,0.068l0.434,0.069l0.434,0.068l0.434,0.069l0.434,0.069L240.487,127.644
				z M122.28,105.879l0.45,4.483l-0.372,0.598l-0.372,0.598l-0.373,0.598l-0.373,0.598l-0.374,0.599l-0.374,0.598l-0.375,0.598
				l-0.376,0.599l-0.377,0.598l-0.377,0.599l-0.378,0.599l-0.379,0.599l-0.38,0.6l-0.38,0.6l-0.382,0.6l-0.382,0.599l-0.383,0.6
				l-0.384,0.6l-0.385,0.6l-0.386,0.6l-0.387,0.601l-0.389,0.6l-0.389,0.601l-0.391,0.601l-0.391,0.6l-0.393,0.601l-0.393,0.601
				l-0.395,0.601l-0.396,0.601l-0.397,0.601l-0.398,0.602l-0.4,0.601l-0.403,0.605l-0.404,0.604l-0.405,0.604l-0.405,0.604
				l-0.405,0.604l-0.406,0.604l-0.406,0.603l-0.407,0.603l-0.407,0.603l-0.408,0.603l-0.407,0.603l-0.407,0.603l-0.408,0.603
				l-0.408,0.603l-0.408,0.602l-0.408,0.602l-0.408,0.602l-0.407,0.603l-0.408,0.602l-0.407,0.603l-0.407,0.602l-0.407,0.603
				l-0.406,0.602l-0.406,0.603l-0.404,0.603l-0.405,0.602l-0.403,0.602l-0.403,0.602l-0.402,0.603l-0.402,0.603l-0.4,0.603
				l-0.4,0.603l-0.441,0.032l-0.441,0.032l-0.441,0.032l-0.441,0.032l-0.441,0.032l-0.442,0.032l-0.442,0.033l-0.442,0.031
				l-0.441,0.033l-0.442,0.032l-0.442,0.032l-0.443,0.032l-0.442,0.032l-0.442,0.032l-0.443,0.032l-0.442,0.032l-0.443,0.033
				l-0.442,0.032l-0.442,0.032l-0.442,0.033l-0.442,0.032l-0.442,0.032l-0.442,0.033l-0.442,0.032l-0.442,0.033l-0.442,0.032
				l-0.442,0.033l-0.442,0.033l-0.441,0.032l-0.441,0.033l-0.441,0.032l-0.441,0.032l-1.254-3.677
				c1.162-1.713,2.345-3.411,3.537-5.128c1.116-1.607,2.263-3.227,3.408-4.844l-0.053-0.145l-0.151-0.415l-0.15-0.415l-0.15-0.415
				l-0.15-0.415l-0.15-0.415l-0.149-0.415l-0.149-0.415l-0.149-0.415l-0.148-0.415l-0.148-0.415l-0.148-0.414l-0.147-0.415
				l-0.148-0.414l-0.146-0.415l-0.146-0.414l-0.146-0.415l-0.145-0.414l-0.145-0.415l-0.145-0.415l-0.144-0.415l-0.143-0.415
				l-0.143-0.415l-0.143-0.415l-0.14-0.408l-0.14-0.409l-0.14-0.408l-0.139-0.409l-0.139-0.408l-0.139-0.409l-0.139-0.408
				l-0.139-0.409l-0.139-0.408l-0.139-0.409l-0.138-0.409l-0.139-0.408l-0.138-0.409l-0.138-0.409l-0.138-0.409l-0.139-0.408
				l-0.138-0.409l-0.139-0.409l-0.139-0.409l-0.139-0.409l-0.139-0.409l-0.139-0.409l-0.139-0.409l-0.139-0.409l-0.139-0.409
				l-0.14-0.409l-0.14-0.409l-0.14-0.41l-0.141-0.409l-0.141-0.41l-0.141-0.409l-0.141-0.41l-1.299-4.42
				c4.472-0.506,8.944-0.943,13.366-1.335c0.909,2.472,1.831,4.927,2.703,7.392c0.87,2.46,1.794,4.925,2.703,7.382
				c1.769-2.656,3.622-5.313,5.357-7.969c1.727-2.642,3.436-5.312,5.128-7.983C113.487,106.251,117.858,106.043,122.28,105.879z
				 M184.153,132.959l0.22,0.013l0.591,0.035l0.592,0.036l0.592,0.036l0.593,0.036l0.594,0.037l0.594,0.037l0.595,0.038l0.595,0.039
				l0.596,0.039l0.596,0.04l0.596,0.041l0.597,0.042l0.598,0.043l0.598,0.044l0.82,0.131l0.776,0.26l0.714,0.371l0.633,0.467
				l0.535,0.546l0.418,0.609l0.283,0.656l0.042,0.223c-0.695,0.465-1.633,0.709-2.687,0.635c-3.308-0.233-6.619-0.412-9.878-0.606
				C184.282,135.526,184.214,134.243,184.153,132.959z M210.568,139.68l-1.187,3.434l-0.162,0.461l-0.193,0.448l-0.223,0.435
				l-0.252,0.42l-0.279,0.406l-0.306,0.39l-0.332,0.375l-0.357,0.359l-0.381,0.343l-0.405,0.325l-0.426,0.306l-0.447,0.288
				l-0.468,0.268l-0.487,0.248l-0.506,0.227l-0.525,0.206l-0.541,0.184l-0.558,0.161l-0.573,0.139l-0.588,0.115l-0.603,0.092
				l-0.615,0.066l-0.628,0.041l-0.639,0.016l-0.65-0.011l-0.66-0.038l-0.424-0.032l-0.425-0.033l-0.425-0.031l-0.424-0.032
				l-0.424-0.03l-0.424-0.031l-0.424-0.029l-0.423-0.029l-0.424-0.029l-0.424-0.028l-0.424-0.028l-0.423-0.028l-0.423-0.027
				l-0.423-0.027l-0.423-0.027l-0.423-0.027l-0.423-0.025l-0.423-0.026l-0.423-0.025l-0.423-0.025l-0.423-0.025l-0.423-0.025
				l-0.423-0.025l-0.422-0.024l-0.423-0.025l-0.422-0.025l-0.423-0.025l-0.422-0.024l-0.423-0.025l-0.423-0.025l-0.423-0.024
				l-0.423-0.025l-0.429-0.024l-0.429-0.024l-0.429-0.024l-0.429-0.023l-0.429-0.023l-0.428-0.022l-0.429-0.022l-0.428-0.022
				l-0.429-0.021l-0.428-0.021l-0.428-0.021l-0.427-0.02l-0.428-0.02l-0.427-0.02l-0.427-0.019l-0.427-0.019l-0.427-0.018
				l-0.427-0.019l-0.427-0.018l-0.427-0.018l-0.426-0.018l-0.427-0.018l-0.426-0.017l-0.426-0.017l-0.426-0.017l-0.426-0.016
				l-0.426-0.016l-0.425-0.017l-0.425-0.016l-0.425-0.016l-0.425-0.016l-0.425-0.016l-0.028-0.73l-0.027-0.73l-0.026-0.73
				l-0.026-0.73l-0.025-0.73l-0.024-0.73l-0.024-0.73l-0.022-0.73l-0.022-0.73l-0.021-0.73l-0.02-0.73l-0.019-0.73l-0.018-0.73
				l-0.016-0.729l-0.016-0.73l-0.015-0.73l-0.013-0.731l-0.013-0.73l-0.013-0.73l-0.012-0.73l-0.012-0.73l-0.011-0.73l-0.01-0.73
				l-0.011-0.73l-0.01-0.73l-0.01-0.73l-0.01-0.73l-0.01-0.73l-0.009-0.729l-0.009-0.73l-0.009-0.73l-0.009-0.73l-0.009-0.333
				l-0.008-0.333l-0.008-0.333l-0.007-0.333l-0.007-0.333l-0.007-0.333l-0.006-0.333l-0.006-0.333l-0.006-0.333l-0.005-0.333
				l-0.005-0.333l-0.005-0.333l-0.005-0.333l-0.004-0.333l-0.005-0.333l-0.005-0.333l-0.228-0.55l-0.227-0.55l-0.228-0.55
				l-0.227-0.55l-0.227-0.551l-0.227-0.55l-0.227-0.551l-0.227-0.55l-0.226-0.55l-0.226-0.551l-0.226-0.551l-0.225-0.551
				l-0.225-0.551l-0.224-0.552l-0.224-0.552l-0.223-0.552l0.436-4.483c1.162,0.045,2.325,0.09,3.487,0.135
				c4.244,0.178,8.539,0.447,12.86,0.719c7.504,0.526,15.083,1.192,22.688,1.927c0.304,3.073,0.632,6.146,0.935,9.214l-1.235,4.243
				l-0.712-0.066l-0.712-0.065l-0.712-0.065l-0.712-0.064l-0.712-0.064l-0.712-0.064l-0.711-0.063l-0.712-0.063l-0.711-0.063
				l-0.711-0.061l-0.711-0.062l-0.71-0.061l-0.711-0.06l-0.71-0.06l-0.71-0.059l-0.71-0.059l-0.71-0.058l-0.709-0.058l-0.709-0.057
				l-0.709-0.056l-0.709-0.055l-0.709-0.055l-0.708-0.054l-0.708-0.054l-0.708-0.053l-0.707-0.053l-0.708-0.052l-0.707-0.051
				l-0.707-0.051l-0.706-0.05l-0.423-0.029l0.01,0.199c4.346,0.263,8.743,0.583,13.138,0.949c3.411,0.284,6.718,1.77,9.273,3.912
				c2.573,2.157,4.371,4.97,4.673,7.879c0.101,0.968,0.196,1.942,0.303,2.91c0.121,1.093,0.015,2.125-0.285,3.081
				C210.66,139.428,210.615,139.554,210.568,139.68z M261.439,117.123l-2.333,4.258l-0.339,0.372l-0.339,0.372l-0.339,0.372
				l-0.338,0.372l-0.339,0.371l-0.339,0.371l-0.338,0.371l-0.338,0.371l-0.184,0.202c0.747,3.609,1.518,7.217,2.27,10.832
				c0.845,4.065,1.678,8.126,2.526,12.199c0.216,1.037,0.077,1.948-0.347,2.689c-0.056,0.098-0.117,0.193-0.183,0.284l-2.134,3.311
				l-0.282,0.415l-0.346,0.373l-0.406,0.329l-0.463,0.284l-0.516,0.235l-0.566,0.185l-0.613,0.133l-0.657,0.079l-0.697,0.023
				l-0.734-0.035l-0.767-0.096l-0.897-0.145l-0.896-0.143l-0.896-0.142l-0.895-0.14l-0.894-0.139l-0.894-0.138l-0.893-0.136
				l-0.893-0.135l-0.892-0.134l-0.892-0.133l-0.891-0.131l-0.891-0.13l-0.89-0.129l-0.89-0.128l-0.889-0.126l-0.888-0.125
				l-0.888-0.124l-0.888-0.123l-0.888-0.121l-0.887-0.12l-0.886-0.119l-0.887-0.118l-0.886-0.117l-0.886-0.116l-0.885-0.115
				l-0.885-0.113l-0.885-0.113l-0.884-0.111l-0.884-0.111l-0.884-0.109l-0.884-0.108l-0.883-0.107l-0.754-0.12l-0.741-0.175
				l-0.724-0.226l-0.702-0.274l-0.676-0.32l-0.646-0.362l-0.612-0.4l-0.574-0.436l-0.531-0.469l-0.484-0.498l-0.432-0.523
				l-0.377-0.547l-0.317-0.566l-0.253-0.583l-0.185-0.596l-0.112-0.606l-0.096-0.786l-0.095-0.787l-0.094-0.787l-0.094-0.787
				l-0.094-0.787l-0.093-0.787l-0.092-0.787l-0.092-0.787l-0.092-0.787l-0.091-0.787l-0.092-0.787l-0.092-0.787l-0.092-0.787
				l-0.092-0.787l-0.092-0.786l-0.093-0.787l-0.093-0.786l-0.093-0.787l-0.093-0.786l-0.093-0.787l-0.093-0.787l-0.094-0.787
				l-0.094-0.787l-0.093-0.787l-0.094-0.787l-0.093-0.787l-0.093-0.787l-0.093-0.787l-0.092-0.787l-0.092-0.787l-0.092-0.787
				l-0.091-0.786l-0.035-0.6l0.036-0.575l0.103-0.548l1.389-4.323c0.6-2.361,3.044-3.865,6.16-3.436
				C233.881,112.295,247.543,114.547,261.439,117.123z M75.414,125.08l-0.481,0.054l-0.481,0.054l-0.481,0.055l-0.481,0.056
				l-0.482,0.056l-0.482,0.057l-0.482,0.058l-0.482,0.058l-0.483,0.058l-0.483,0.059l-0.483,0.059l-0.483,0.06l-0.483,0.061
				l-0.484,0.06l-0.484,0.061l-0.484,0.061l-0.484,0.062l-0.484,0.062l-0.484,0.063l-0.484,0.062l-0.485,0.063l-0.484,0.063
				l-0.485,0.063l-0.485,0.064l-0.485,0.064l-0.485,0.064l-0.485,0.064l-0.485,0.064l-0.485,0.064l-0.485,0.064l-0.485,0.064
				l-0.485,0.064l-0.098,0.405l-0.098,0.404l-0.098,0.405l-0.098,0.405l-0.099,0.405l-0.098,0.405l-0.099,0.405l-0.099,0.405
				l-0.099,0.404l-0.099,0.405l-0.099,0.405l-0.099,0.404l-0.099,0.405l-0.099,0.405l-0.099,0.404l-0.099,0.405l-0.098,0.405
				l-0.098,0.405l-0.098,0.404l-0.098,0.405l-0.097,0.405l-0.098,0.405l-0.097,0.405l-0.097,0.405l-0.096,0.405l-0.097,0.405
				l-0.096,0.405l-0.095,0.405l-0.095,0.405l-0.094,0.404l-0.094,0.405l-0.093,0.405l-0.092,0.404l-0.092,0.405l-0.091,0.404
				l-0.09,0.405l-0.09,0.404l-0.089,0.405l-0.088,0.405l-0.088,0.405l-0.087,0.404l-0.086,0.405l-0.086,0.405l-0.085,0.405
				l-0.084,0.405l-0.084,0.405l-0.083,0.405l-0.083,0.405l-0.082,0.405l-0.082,0.406l-0.081,0.405l-0.08,0.406l-0.08,0.405
				l-0.079,0.405l-0.079,0.405l-0.078,0.405l-0.078,0.405l-0.077,0.405l-0.077,0.405l-0.077,0.405l-0.076,0.405l-0.076,0.404
				l-0.075,0.405l-0.074,0.405l-0.446,0.056l-0.446,0.056l-0.446,0.057l-0.446,0.057l-0.446,0.059l-0.447,0.058l-0.446,0.059
				l-0.447,0.06l-0.446,0.06l-0.447,0.06l-0.446,0.061l-0.447,0.061l-0.447,0.061l-0.446,0.062l-0.447,0.063l-0.446,0.062
				l-0.447,0.063l-0.446,0.063l-0.447,0.063l-0.447,0.063l-0.446,0.064l-0.447,0.064l-0.446,0.064l-0.447,0.064l-0.446,0.064
				l-0.446,0.064l-0.446,0.065l-0.446,0.064l-0.446,0.064l-0.446,0.065l-0.446,0.064l-0.446,0.065l-2.141-3.575
				c0.909-4.393,1.909-8.798,3.057-13.181c0.745-2.846,1.532-5.69,2.316-8.534l-0.294,0.05l-0.448,0.077l-0.448,0.077l-0.449,0.078
				l-0.448,0.078l-0.449,0.079l-0.448,0.079l-0.449,0.08l-0.449,0.08l-0.449,0.08l-0.45,0.081l-0.449,0.081l-0.45,0.081
				l-0.449,0.081l-0.45,0.082l-0.45,0.082l-0.45,0.082l-0.45,0.083l-0.45,0.083l-0.45,0.083l-0.451,0.083l-0.45,0.083l-0.451,0.083
				l-0.45,0.083l-0.45,0.083l-2.301-4.05c-0.278-1.728-0.519-3.477-0.783-5.208c-0.266-1.738-0.556-3.475-0.809-5.223
				c16.296-3.058,32.264-5.605,48.004-7.665l1.373,4.412l-0.061,0.351l-0.061,0.351l-0.062,0.351l-0.063,0.351l-0.063,0.351
				l-0.064,0.351l-0.064,0.351l-0.064,0.351l-0.065,0.351l-0.065,0.351l-0.065,0.351l-0.064,0.35l-0.064,0.35l-0.064,0.349
				l-0.064,0.35l-0.063,0.349l-0.063,0.35l-0.064,0.35l-0.065,0.35l-0.066,0.35l-0.067,0.35l-0.068,0.35l-0.069,0.35l-0.069,0.35
				l-0.07,0.351l-0.069,0.35l-0.07,0.35l-0.07,0.35l-0.07,0.35l-0.07,0.35l-0.07,0.35L75.414,125.08z"/>
			<path fill-rule="evenodd" clip-rule="evenodd" fill="#AEB0B0" d="M149.414,113.787c-3.536-0.043-7.074-0.039-10.636,0
				c-0.075,1.743-0.19,3.49-0.278,5.233c-0.088,1.742-0.177,3.49-0.278,5.223c3.613-0.035,7.252-0.051,10.864-0.015
				c1.365,0.014,2.499-0.923,2.527-2.09c0.049-2.065,0.103-4.121,0.152-6.191C151.791,114.78,150.728,113.803,149.414,113.787
				 M126.372,105.73c4.244-0.139,8.514-0.193,12.784-0.243c5.584-0.055,11.142,0.012,16.725,0.099
				c4.017,0.062,7.322,3.143,7.353,6.717c0.02,2.328,0.025,4.652,0.025,6.97c0,2.318-0.025,4.642-0.025,6.965
				c0,3.58-3.462,6.429-7.731,6.365c-5.937-0.09-11.85-0.12-17.761-0.07c-0.076,1.872-0.177,3.738-0.253,5.605
				c-0.076,1.866-0.101,3.733-0.152,5.605c-4.624,0.03-9.272,0.109-13.896,0.243C124.317,131.066,125.518,118.474,126.372,105.73z
				 M242.44,123.513c0.556,2.929,1.061,5.849,1.592,8.772c0.53,2.92,1.036,5.839,1.566,8.758c-4.927-0.779-9.803-1.46-14.679-2.105
				c-0.455-2.919-0.884-5.844-1.314-8.762c-0.429-2.919-0.859-5.844-1.314-8.768C232.991,122.044,237.715,122.754,242.44,123.513z
				 M109.091,106.524c4.396-0.273,8.768-0.481,13.189-0.645c-4.042,6.504-8.173,13.035-12.532,19.581
				c-4.382,6.58-8.893,13.121-13.239,19.685c-4.8,0.347-9.625,0.7-14.426,1.052c1.162-1.713,2.345-3.411,3.537-5.128
				c1.182-1.703,2.4-3.421,3.613-5.133c-1.668-4.523-3.298-9.032-4.851-13.548c-1.528-4.444-3.007-8.897-4.548-13.35
				c4.472-0.506,8.944-0.943,13.366-1.335c0.909,2.472,1.831,4.927,2.703,7.392c0.87,2.46,1.794,4.925,2.703,7.382
				c1.769-2.656,3.622-5.313,5.357-7.969C105.689,111.865,107.398,109.195,109.091,106.524z M198.075,133.308
				c0.022,0.333,0.046,0.656,0.076,0.983c0.172,1.901-1.59,3.287-3.916,3.123c-3.308-0.233-6.619-0.412-9.878-0.606
				c-0.152-2.641-0.278-5.287-0.379-7.929c3.208,0.189,6.444,0.384,9.702,0.626C195.954,129.675,197.946,131.412,198.075,133.308z
				 M210.682,133.308c0.101,0.968,0.196,1.942,0.303,2.91c0.322,2.914-0.971,5.402-3.233,7.124
				c-2.259,1.719-5.481,2.634-9.096,2.354c-4.622-0.36-9.222-0.616-13.82-0.884c-4.674-0.273-9.323-0.462-13.946-0.63
				c-0.152-3.972-0.278-7.944-0.354-11.916c-0.076-3.976-0.126-7.948-0.177-11.92c-0.051-1.812-0.076-3.624-0.101-5.436
				c-1.238-2.994-2.476-5.988-3.689-8.991c1.162,0.045,2.325,0.09,3.487,0.135c4.244,0.178,8.539,0.447,12.86,0.719
				c7.504,0.526,15.083,1.192,22.688,1.927c0.304,3.073,0.632,6.146,0.935,9.214c-7.757-0.72-15.487-1.37-23.168-1.892
				c0.075,1.519,0.151,3.033,0.227,4.548c4.346,0.263,8.743,0.583,13.138,0.949c3.411,0.284,6.718,1.77,9.273,3.912
				C208.581,127.587,210.379,130.399,210.682,133.308z M261.439,117.123c-1.844,2.026-3.688,4.041-5.508,6.062
				c0.834,4.066,1.705,8.131,2.552,12.203c0.845,4.065,1.678,8.126,2.526,12.199c0.692,3.319-2.259,5.341-6.518,4.651
				c-9.763-1.579-19.418-2.921-29.03-4.08c-4.132-0.499-7.879-3.516-8.287-6.837c-0.526-4.28-1.01-8.564-1.516-12.843
				c-0.505-4.279-1.018-8.569-1.516-12.849c-0.386-3.321,2.432-5.722,6.266-5.193C233.881,112.295,247.543,114.547,261.439,117.123z
				 M76.146,109.459c-0.329,1.911-0.696,3.824-1.036,5.724c-0.341,1.903-0.733,3.813-1.112,5.714
				c-5.23,0.581-10.51,1.286-15.791,1.981c-1.061,4.404-2.172,8.809-3.183,13.216c-1.009,4.399-1.895,8.817-2.703,13.22
				c-4.851,0.606-9.727,1.316-14.578,2.016c0.909-4.393,1.909-8.798,3.057-13.181c1.151-4.395,2.4-8.787,3.588-13.176
				c-4.851,0.775-9.752,1.678-14.654,2.581c-0.278-1.728-0.519-3.477-0.783-5.208c-0.266-1.738-0.556-3.475-0.809-5.223
				C44.438,114.065,60.406,111.518,76.146,109.459z"/>
		</g>
		<path fill-rule="evenodd" clip-rule="evenodd" fill="#0E1314" d="M199.777,177.261c0.104-0.92,0.753-1.841,1.396-2.762
			c0.643-0.922,1.279-1.844,1.354-2.767c-0.237-1.374-0.473-2.75-0.705-4.124c-0.233-1.375-0.464-2.751-0.695-4.127
			c-40.468-13.463-81.735-13.492-122.297,0c-0.231,1.376-0.463,2.752-0.696,4.127c-0.232,1.375-0.468,2.75-0.705,4.124
			c0.076,0.923,0.712,1.845,1.354,2.767c0.642,0.921,1.292,1.842,1.396,2.762l-4.151,20.864l-0.84,4.333l64.789-5.68l63.949,4.924
			v-3.577C202.564,189.843,201.187,185.525,199.777,177.261"/>
		<g>
			<defs>
				<path id="SVGID_8_" d="M199.777,177.261c0.104-0.92,0.753-1.841,1.396-2.762c0.643-0.922,1.279-1.844,1.354-2.767
					c-0.237-1.374-0.473-2.75-0.705-4.124c-0.233-1.375-0.464-2.751-0.695-4.127c-40.468-13.463-81.735-13.492-122.297,0
					c-0.231,1.376-0.463,2.752-0.696,4.127c-0.232,1.375-0.468,2.75-0.705,4.124c0.076,0.923,0.712,1.845,1.354,2.767
					c0.642,0.921,1.292,1.842,1.396,2.762l-4.151,20.864l1.489,4.333l53.522-5.68l70.759,5.68l2.128-4.333
					C202.564,189.843,201.187,185.525,199.777,177.261"/>
			</defs>
			<clipPath id="SVGID_9_">
				<use xlink:href="#SVGID_8_"  overflow="visible"/>
			</clipPath>
			<radialGradient id="SVGID_10_" cx="104.1313" cy="164.468" r="53.0754" gradientUnits="userSpaceOnUse">
				<stop  offset="1.953869e-07" style="stop-color:#FFBFAA"/>
				<stop  offset="0.0141" style="stop-color:#FCB9A4"/>
				<stop  offset="0.1216" style="stop-color:#EA907C"/>
				<stop  offset="0.2355" style="stop-color:#DA6D5A"/>
				<stop  offset="0.3551" style="stop-color:#CD503F"/>
				<stop  offset="0.4824" style="stop-color:#C33A29"/>
				<stop  offset="0.621" style="stop-color:#BC2A1A"/>
				<stop  offset="0.7791" style="stop-color:#B72111"/>
				<stop  offset="1" style="stop-color:#B61E0E"/>
			</radialGradient>
			<path clip-path="url(#SVGID_9_)" fill-rule="evenodd" clip-rule="evenodd" fill="url(#SVGID_10_)" d="M86.217,164.096
				c39.507-11.56,74.292-8.276,107.453,0.035c0.538,0.136,4.474,26.192,4.474,26.192l0.024-0.017
				c0.305,1.949,1.128,3.551,2.532,4.807c1.404,1.256,2.655,1.819,1.922,1.819c-0.732,0-2.64,0.26-6.698,3.854
				c-4.058,3.594-6.774,5.586-7.232,5.933c-0.458,0.346-0.039-0.823,2.777-4.028c2.816-3.205,4.288-5.416,2.984-6.371
				c-0.071-0.012-0.143-0.029-0.213-0.049c-1.479-0.359-2.959-0.712-4.441-1.051c-3.08-0.707-3.506-0.569-3.977-0.148l-3.053,3.5
				c0,0-0.559,0.091,0.116-0.98c0.459-0.727,1.029-1.95,0.852-2.808c-0.203-0.983-1.76-1.195-2.387-1.316l-0.482-0.093
				c-2.008-0.387-2.216-0.383-2.459-0.095l-2.099,2.406c0,0-0.362,0.059,0.075-0.633c0.328-0.52,0.743-1.431,0.497-1.982
				c-0.242-0.544-1.42-0.656-1.82-0.713c-24.616-3.463-47.104-3.871-72.865,0.163c-1.315,0.568-0.792,2.441-0.315,3.435
				c0.477,0.994-0.03,0.931-0.03,0.931l-2.478-3.435c-0.266-0.539-2.547,0.318-6.693,1.192c-1.188,0.251-2.377,0.505-3.562,0.779
				l-0.834,0.196c-0.068,0.032,0.595-0.221-0.224,0.098c-0.819,0.319-1.648,2.078,0.793,5.066s3.479,4.46,3.143,4.46
				s-10.114-8.271-11.304-8.791c-1.19-0.52-3.417-0.433-1.617-1.559c1.8-1.126,1.922-1.515,2.288-3.724l0.004,0.002L86.217,164.096"
				/>
			<defs>
				<filter id="Adobe_OpacityMaskFilter_1_" filterUnits="userSpaceOnUse" x="69.012" y="186.508" width="138.42" height="42.673">
					<feFlood  style="flood-color:white;flood-opacity:1" result="back"/>
					<feBlend  in="SourceGraphic" in2="back" mode="normal"/>
				</filter>
			</defs>
			<mask maskUnits="userSpaceOnUse" x="69.012" y="186.508" width="138.42" height="42.673" id="SVGID_11_">
				<g filter="url(#Adobe_OpacityMaskFilter_1_)">
					
						<linearGradient id="SVGID_12_" gradientUnits="userSpaceOnUse" x1="58.8582" y1="316.9384" x2="58.8582" y2="372.1469" gradientTransform="matrix(1 0 0 1 79.3636 -160.4021)">
						<stop  offset="0" style="stop-color:#FFFFFF"/>
						<stop  offset="1" style="stop-color:#141414"/>
					</linearGradient>
					<rect x="69.012" y="186.508" clip-path="url(#SVGID_9_)" fill="url(#SVGID_12_)" width="138.42" height="42.673"/>
				</g>
			</mask>
			<path clip-path="url(#SVGID_9_)" mask="url(#SVGID_11_)" fill-rule="evenodd" clip-rule="evenodd" d="M80.74,189.976
				c0.042,2.464-1.355,4.087,5.464,2.705c6.819-1.382,29.605-7.212,57.982-6.01c28.376,1.202,43.624,5.41,48.452,6.732
				c4.828,1.322,5.887,1.202,6.31,0.12c0.424-1.082,3.43-1.803,4.913-0.721c1.482,1.082,3.558,8.896,3.558,8.896
				s1.101,13.704-16.349,16.829c-17.449,3.126-87.586,11.54-89.958,10.579c-2.372-0.962-25.412-2.404-29.647-13.464
				C67.23,204.582,67.399,189.435,80.74,189.976"/>
			<path clip-path="url(#SVGID_9_)" fill-rule="evenodd" clip-rule="evenodd" fill="none" d="M76.251,170.506l7.585-3.251
				c0.263-1.593,1.179-2.881,2.381-3.159c39.507-11.56,74.292-8.276,107.453,0.035c0.538,0.136,1.037,0.482,1.418,0.97
				c0.479,0.582,0.807,1.363,0.948,2.213l7.446,3.191c0,0-3.133,7.848-3.403,5.488c-0.271-2.36-0.619-3.841-2.475-3.677
				c-0.992,0.088-1.598,0.63-1.946,1.117l-0.083,0.894l2.569,15.996l0.024-0.017c0.305,1.949,1.128,3.551,2.532,4.807
				c1.404,1.256,2.655,1.819,1.922,1.819c-0.732,0-2.64,0.26-6.698,3.854c-4.058,3.594-6.774,5.586-7.232,5.933
				c-0.458,0.346-0.039-0.823,2.777-4.028c2.816-3.205,4.288-5.416,2.984-6.371c-0.071-0.012-0.143-0.029-0.213-0.049
				c-1.479-0.359-2.959-0.712-4.441-1.051c-3.08-0.707-3.506-0.569-3.977-0.148l-3.053,3.5c0,0-0.559,0.091,0.116-0.98
				c0.459-0.727,1.029-1.95,0.852-2.808c-0.203-0.983-1.76-1.195-2.387-1.316l-0.482-0.093c-2.008-0.387-2.216-0.383-2.459-0.095
				l-2.099,2.406c0,0-0.362,0.059,0.075-0.633c0.328-0.52,0.743-1.431,0.497-1.982c-0.242-0.544-1.42-0.656-1.82-0.713
				c-24.616-3.463-47.104-3.871-72.865,0.163c-1.315,0.568-0.792,2.441-0.315,3.435c0.477,0.994-0.03,0.931-0.03,0.931l-2.478-3.435
				c-0.266-0.539-2.547,0.318-6.693,1.192c-1.188,0.251-2.377,0.505-3.562,0.779l-0.834,0.196c-0.068,0.032,0.595-0.221-0.224,0.098
				c-0.819,0.319-1.648,2.078,0.793,5.066s3.479,4.46,3.143,4.46s-10.114-8.271-11.304-8.791c-1.19-0.52-3.417-0.433-1.617-1.559
				c1.8-1.126,1.922-1.515,2.288-3.724l0.004,0.002l2.814-16.415l-0.086-1.297c-0.345-0.493-0.955-1.055-1.966-1.145
				c-1.856-0.165-2.204,1.317-2.475,3.677C79.384,178.354,76.251,170.506,76.251,170.506"/>
		</g>
		<g>
			<g>
				<path fill-rule="evenodd" clip-rule="evenodd" fill="#9A0D06" d="M167.26,163.062l-1.658-2.423l-1.817,2.228
					c-0.64-0.035-1.281-0.076-1.92-0.108c-0.537,0.518-1.075,1.036-1.615,1.557c-1.022,0.972-2.062,1.96-3.093,2.94l-4.18,2.026
					c-1.93-1.755-3.854-3.504-5.755-5.237c-0.602-0.604-1.202-1.206-1.801-1.807c-1.763-0.023-3.525-0.036-5.286-0.038
					c-0.024,6.489-0.049,12.977-0.074,19.466l-1.673,1.735l1.657,2.423c2.529,0.002,5.059,0.023,7.589,0.061
					c-0.081-4.732-0.167-9.464-0.257-14.197c0.861,0.773,1.725,1.548,2.592,2.325c1.47,1.302,2.947,2.61,4.43,3.924
					c1.362-1.252,2.717-2.497,4.066-3.736c0.763-0.709,1.524-1.416,2.282-2.121c0.161,2.646,0.308,5.292,0.461,7.938l-1.294,3.835
					l1.658,2.423c2.545,0.104,5.095,0.225,7.65,0.365C168.614,178.78,167.96,170.921,167.26,163.062z"/>
				<path fill-rule="evenodd" clip-rule="evenodd" fill="#9A0D06" d="M121.038,162.199c0,0-0.166,0.162-0.429,0.419
					c-2.072,0.089-4.145,0.187-6.224,0.305c-0.774,0.044-1.549,0.09-2.325,0.138c0.631,1.437,1.267,2.876,1.91,4.317
					c-0.03,0.329-0.06,0.658-0.09,0.987c-0.109,1.209-0.218,2.419-0.325,3.628c-0.118,1.346-0.234,2.691-0.35,4.037
					c-1.261,4.051-2.521,8.054-2.521,8.054l1.658,2.423c2.552-0.128,5.099-0.238,7.642-0.33c0.179-3.026,0.362-6.052,0.549-9.078
					c4.5-0.171,8.99-0.282,13.474-0.332c0.041-1.817,0.082-3.634,0.123-5.451c-4.408,0.051-8.823,0.163-13.248,0.336
					c0.079-1.21,0.16-2.421,0.24-3.631c4.373-0.175,8.736-0.288,13.092-0.339c0.043-1.817,0.086-3.634,0.13-5.451l-1.657-2.423
					L121.038,162.199z"/>
			</g>
			<g>
				<path fill-rule="evenodd" clip-rule="evenodd" fill="#E6E6E6" d="M112.727,160.501c-0.774,0.044-1.549,0.09-2.325,0.138
					c0.631,1.437,1.267,2.876,1.91,4.317c-0.03,0.329-0.06,0.658-0.09,0.987c-0.109,1.209-0.218,2.419-0.325,3.628
					c-0.159,1.814-0.316,3.628-0.472,5.443c-0.253,3.024-0.5,6.047-0.742,9.071c2.552-0.128,5.099-0.238,7.642-0.33
					c0.179-3.026,0.362-6.052,0.549-9.078c4.5-0.171,8.99-0.282,13.474-0.332c0.041-1.817,0.082-3.634,0.123-5.451
					c-4.408,0.051-8.823,0.163-13.248,0.336c0.079-1.21,0.16-2.421,0.24-3.631c4.373-0.175,8.737-0.288,13.092-0.339
					c0.043-1.817,0.086-3.634,0.13-5.451c-4.275,0.052-8.557,0.166-12.85,0.344C117.471,160.249,115.102,160.365,112.727,160.501z"
					/>
				<path fill-rule="evenodd" clip-rule="evenodd" fill="#E6E6E6" d="M160.208,160.336c-0.537,0.518-1.075,1.036-1.615,1.557
					c-2.057,1.956-4.133,3.928-6.227,5.918c-2.287-2.078-4.554-4.141-6.801-6.189c-0.602-0.604-1.202-1.206-1.801-1.807
					c-1.763-0.023-3.524-0.036-5.286-0.038c-0.029,7.875-0.059,15.749-0.09,23.624c2.529,0.002,5.059,0.023,7.589,0.061
					c-0.081-4.732-0.167-9.464-0.257-14.197c0.861,0.773,1.725,1.548,2.592,2.325c1.47,1.302,2.947,2.61,4.43,3.924
					c1.362-1.252,2.717-2.497,4.066-3.736c0.763-0.709,1.524-1.416,2.282-2.121c0.287,4.732,0.562,9.464,0.825,14.195
					c2.545,0.104,5.095,0.226,7.65,0.365c-0.609-7.859-1.263-15.718-1.963-23.577C163.801,160.527,162.003,160.426,160.208,160.336z
					"/>
			</g>
		</g>
		<path fill="#FFFFFF" d="M207.071,185.063l-2.058,7.064l2.241,8.36l-1.246,0.889c-4.216-1.096-8.423-2.065-12.601-2.907
			c-43.52-8.71-84.24-4.23-107.03-0.14c-4.323,0.783-7.994,1.545-10.925,2.2l-1.115-1.985l0.851-10.062l-2.302-3.418l-4.706,18.881
			c-0.547,2.196,1.462,4.161,3.648,3.579c1.164-0.31,2.591-0.65,4.338-1.014c0.305-0.064,0.581-0.126,0.844-0.189
			c5.985-1.334,15.141-3.118,26.556-4.531c19.4-2.41,45.32-3.74,73.26,0c8.69,1.16,17.57,2.82,26.52,5.08
			c1.546,0.509,2.854,1,3.956,1.458c2.209,0.918,4.544-0.998,4.042-3.337L207.071,185.063z"/>
	</g>
	<path opacity="0.25" fill-rule="evenodd" clip-rule="evenodd" d="M189.734,79.551c-2.29,4.03-5.11,7.71-8.36,10.97
		c-9.36,9.35-22.3,15.14-36.58,15.14c-14.27,0-27.21-5.79-36.57-15.14c-9.36-9.37-15.15-22.3-15.15-36.58
		c0-9.53,2.58-18.46,7.07-26.12L189.734,79.551z"/>
	<path fill-rule="evenodd" clip-rule="evenodd" fill="#737373" d="M176.792,24.364l-0.199,0.478
		c2.558,3.129,6.755,8.101,8.367,11.85c2.282,5.304,3.546,11.139,3.546,17.252c0,12.067-4.894,22.995-12.802,30.906
		c-7.908,7.909-18.839,12.802-30.906,12.802c-12.067,0-22.997-4.894-30.906-12.802c-7.908-7.911-12.802-18.838-12.802-30.906
		c0-12.067,4.894-22.995,12.802-30.906c7.909-7.909,18.839-12.802,30.906-12.802c3.414,0,6.829,0.426,10.186,1.23
		c2.79,0.667,5.428,1.57,7.892,2.684c2.901,0.037,5.022,0.298,7.952,0.658l1.688,0.209c0.704,0.088,1.407,0.269,2.094,0.554
		c4.011,1.666,4.083,4.125,2.417,8.136"/>
	<path fill-rule="evenodd" clip-rule="evenodd" fill="#0E1314" d="M178.857,22.854l-0.199,0.478
		c2.558,3.129,4.69,6.612,6.302,10.361c2.282,5.304,3.546,11.139,3.546,17.252c0,12.067-4.894,22.995-12.802,30.906
		c-7.908,7.909-18.839,12.802-30.906,12.802c-12.067,0-22.997-4.894-30.906-12.802c-7.908-7.911-12.802-18.838-12.802-30.906
		c0-12.067,4.894-22.995,12.802-30.906c7.909-7.909,18.839-12.802,30.906-12.802c3.414,0,6.829,0.426,10.186,1.23
		c2.79,0.667,5.428,1.57,7.892,2.684c2.901,0.037,5.022,0.298,7.952,0.658l1.688,0.209c0.704,0.088,1.407,0.269,2.094,0.554
		C178.62,14.238,180.523,18.842,178.857,22.854"/>
	<path fill="#FFFFFF" d="M169.291,25.093c0.341-0.717,0.33-0.721,2.141-5.069c-4.33-0.52-6.684-0.897-10.477-0.825
		c-4.849-2.473-10.339-3.868-16.157-3.868c-19.669,0-35.613,15.945-35.613,35.613c0,19.669,15.944,35.614,35.613,35.614
		c19.669,0,35.614-15.945,35.614-35.614C180.412,40.764,176.14,31.584,169.291,25.093"/>
	<radialGradient id="SVGID_13_" cx="128.4546" cy="36.3787" r="60.7744" gradientUnits="userSpaceOnUse">
		<stop  offset="1.953869e-07" style="stop-color:#FFBFAA"/>
		<stop  offset="0.0141" style="stop-color:#FCB9A4"/>
		<stop  offset="0.1216" style="stop-color:#EA907C"/>
		<stop  offset="0.2355" style="stop-color:#DA6D5A"/>
		<stop  offset="0.3551" style="stop-color:#CD503F"/>
		<stop  offset="0.4824" style="stop-color:#C33A29"/>
		<stop  offset="0.621" style="stop-color:#BC2A1A"/>
		<stop  offset="0.7791" style="stop-color:#B72111"/>
		<stop  offset="1" style="stop-color:#B61E0E"/>
	</radialGradient>
	<path fill="url(#SVGID_13_)" d="M166.703,30.032c-0.065-0.068-0.155-0.104-0.25-0.102c-0.094,0.002-0.183,0.045-0.244,0.117
		c-1.449,1.725-3.152,3.228-5.071,4.464c-3.717,2.393-8.025,3.657-12.455,3.657c-8.361,0-13.038-4.059-16.953-7.057
		c-0.083-0.063-0.132-0.162-0.13-0.265c0-0.103,0.049-0.202,0.132-0.263c5.948-4.481,10.894-7.407,15.819-9.164
		c0.146-0.053,0.237-0.2,0.217-0.355c-0.02-0.154-0.145-0.274-0.3-0.288c-0.879-0.077-1.77-0.118-2.669-0.118
		c-16.727,0-30.287,13.56-30.287,30.287c0,9.226,4.125,17.488,10.632,23.044c0.086,0.072,0.2,0.097,0.308,0.065
		c0.107-0.03,0.191-0.112,0.224-0.219l1.236-3.942c0.052-0.164,0.219-0.262,0.387-0.225c16.205,3.539,23.151-5.266,22.008-10.679
		c-0.976-4.622-8.547-8.731-19.724-2.474c-0.086,0.047-0.189,0.054-0.278,0.021c-0.033-0.013-0.063-0.03-0.09-0.051l-0.034-0.028
		c-0.1-0.075-0.147-0.203-0.124-0.326l3.79-19.267c0.021-0.108,0.094-0.198,0.195-0.241c0.101-0.043,0.216-0.034,0.309,0.025
		c1.094,0.694,4.235,2.676,7.66,4.752c0.114,0.069,0.175,0.197,0.158,0.329c-0.118,0.838-0.54,3.875-0.767,5.114
		c-0.023,0.113,0.018,0.227,0.102,0.305c0.083,0.077,0.201,0.106,0.311,0.076c18.63-5.025,22.52,6.711,22.048,12.297
		c-1.076,12.67-15.013,19.374-27.463,19.54c-0.162,0.002-0.3,0.122-0.325,0.282c-0.023,0.16,0.071,0.315,0.225,0.366
		c2.989,0.986,6.183,1.522,9.502,1.522c16.727,0,30.286-13.559,30.286-30.286C175.084,42.834,171.895,35.47,166.703,30.032"/>
	<path fill="none" d="M166.703,30.032c-0.065-0.068-0.155-0.104-0.25-0.102c-0.094,0.002-0.183,0.045-0.244,0.117
		c-1.449,1.725-3.152,3.228-5.071,4.464c-3.717,2.393-8.025,3.657-12.455,3.657c-8.361,0-13.038-4.059-16.953-7.057
		c-0.083-0.063-0.132-0.162-0.13-0.265c0-0.103,0.049-0.202,0.132-0.263c5.948-4.481,10.894-7.407,15.819-9.164
		c0.146-0.053,0.237-0.2,0.217-0.355c-0.02-0.154-0.145-0.274-0.3-0.288c-0.879-0.077-1.77-0.118-2.669-0.118
		c-16.727,0-30.287,13.56-30.287,30.287c0,9.226,4.125,17.488,10.632,23.044c0.086,0.072,0.2,0.097,0.308,0.065
		c0.107-0.03,0.191-0.112,0.224-0.219l1.236-3.942c0.052-0.164,0.219-0.262,0.387-0.225c16.205,3.539,23.151-5.266,22.008-10.679
		c-0.976-4.622-8.547-8.731-19.724-2.474c-0.086,0.047-0.189,0.054-0.278,0.021c-0.033-0.013-0.063-0.03-0.09-0.051l-0.034-0.028
		c-0.1-0.075-0.147-0.203-0.124-0.326l3.79-19.267c0.021-0.108,0.094-0.198,0.195-0.241c0.101-0.043,0.216-0.034,0.309,0.025
		c1.094,0.694,4.235,2.676,7.66,4.752c0.114,0.069,0.175,0.197,0.158,0.329c-0.118,0.838-0.54,3.875-0.767,5.114
		c-0.023,0.113,0.018,0.227,0.102,0.305c0.083,0.077,0.201,0.106,0.311,0.076c18.63-5.025,22.52,6.711,22.048,12.297
		c-1.076,12.67-15.013,19.374-27.463,19.54c-0.162,0.002-0.3,0.122-0.325,0.282c-0.023,0.16,0.071,0.315,0.225,0.366
		c2.989,0.986,6.183,1.522,9.502,1.522c16.727,0,30.286-13.559,30.286-30.286C175.084,42.834,171.895,35.47,166.703,30.032"/>
	<path fill="#A1CF0A" d="M132.898,30.843c10.069,7.622,24.776,3.752,29.686-8.049c-0.005-0.002-0.011-0.002-0.016-0.003
		c-9.118,4.333-19.158,7.111-29.666,8.049C132.901,30.842,132.899,30.843,132.898,30.843"/>
	<path fill-rule="evenodd" clip-rule="evenodd" fill="#07B12D" d="M132.902,30.841c10.509-0.938,20.549-3.717,29.666-8.049
		C152.344,21.591,141.685,24.182,132.902,30.841"/>
</g>
</svg>
